<svg xmlns="http://www.w3.org/2000/svg" xmlns:xlink="http://www.w3.org/1999/xlink" width="2016.249" height="446.258" viewBox="0 0 2016.249 446.258">
  <defs>
    <linearGradient id="linear-gradient" y1="0.5" x2="1" y2="0.5" gradientUnits="objectBoundingBox">
      <stop offset="0" stop-color="#fff"/>
      <stop offset="0.499" stop-color="#fff"/>
      <stop offset="1" stop-color="#bfbfbf"/>
    </linearGradient>
  </defs>
  <g id="line-des" transform="translate(-968.484 311.541)" opacity="0.34">
    <path id="Path_439" data-name="Path 439" d="M2720.382,92.885c-223,0-472.272-141.091-641.7-236.987-29.608-16.761-57.577-32.59-82-45.706-302.814-162.663-565.371-104.327-732.3-26.748C1083.423-132.467,972.725-8.359,971.63-7.117L968.484-9.89c1.1-1.25,112.389-126.012,294.132-210.471,106.781-49.615,216.645-75.843,326.542-77.948,137.383-2.626,275.156,32.628,409.515,104.805,24.462,13.137,52.447,28.979,82.076,45.752C2321.965-11.224,2725.688,217.291,2982-3.1L2984.733.08C2907.061,66.867,2816.148,92.885,2720.382,92.885Z" transform="translate(0 41.832)" fill="url(#linear-gradient)"/>
    <path id="Path_440" data-name="Path 440" d="M2720.382,85.614c-223,0-472.272-141.091-641.7-236.987-29.608-16.761-57.577-32.59-82-45.706-302.806-162.654-565.366-104.323-732.3-26.748C1083.423-139.734,972.725-15.63,971.63-14.388l-3.146-2.773c1.1-1.25,112.389-126.012,294.132-210.466,106.781-49.624,216.645-75.847,326.542-77.953,137.383-2.571,275.156,32.628,409.515,104.805,24.462,13.137,52.447,28.979,82.076,45.752C2321.965-18.495,2725.688,210.024,2982-10.37l2.735,3.179C2907.061,59.6,2816.148,85.614,2720.382,85.614Z" transform="translate(0 18.622)" fill="url(#linear-gradient)"/>
    <path id="Path_441" data-name="Path 441" d="M2720.382,79.792c-223,0-472.268-141.091-641.7-236.987-29.608-16.761-57.577-32.59-82-45.706-302.806-162.659-565.366-104.323-732.3-26.748C1083.423-145.56,972.725-21.453,971.63-20.207l-3.146-2.773c1.1-1.254,112.389-126.016,294.132-210.475,106.781-49.62,216.645-75.843,326.542-77.953,137.425-2.6,275.156,32.632,409.515,104.809,24.462,13.137,52.451,28.979,82.08,45.752C2321.973-24.309,2725.7,204.193,2982-16.193l2.735,3.179C2907.061,53.774,2816.144,79.792,2720.382,79.792Z" transform="translate(0 0)" fill="url(#linear-gradient)"/>
  </g>
</svg>
