<svg xmlns="http://www.w3.org/2000/svg" width="140" height="140" viewBox="0 0 140 140">
  <g id="ot01" transform="translate(-442 -3156)">
    <circle id="Ellipse_1" data-name="Ellipse 1" cx="70" cy="70" r="70" transform="translate(442 3156)" fill="#2cabe1"/>
    <path id="Icon_awesome-user-circle" data-name="Icon awesome-user-circle" d="M35.987.563A35.987,35.987,0,1,0,71.974,36.55,35.981,35.981,0,0,0,35.987.563Zm0,13.93a12.77,12.77,0,1,1-12.77,12.77A12.77,12.77,0,0,1,35.987,14.493Zm0,49.918a27.807,27.807,0,0,1-21.258-9.9,16.179,16.179,0,0,1,14.293-8.678,3.551,3.551,0,0,1,1.03.16,19.213,19.213,0,0,0,5.935,1,19.14,19.14,0,0,0,5.935-1,3.551,3.551,0,0,1,1.03-.16,16.179,16.179,0,0,1,14.293,8.678A27.807,27.807,0,0,1,35.987,64.411Z" transform="translate(476 3189.438)" fill="#fff"/>
  </g>
</svg>
