<svg xmlns="http://www.w3.org/2000/svg" width="140" height="140" viewBox="0 0 140 140">
  <g id="ot03" transform="translate(-1380.029 -3156.365)">
    <circle id="Ellipse_2" data-name="Ellipse 2" cx="70" cy="70" r="70" transform="translate(1380.029 3156.365)" fill="#2cabe1"/>
    <path id="Icon_awesome-headset" data-name="Icon awesome-headset" d="M24.476,26.516A4.08,4.08,0,0,0,20.4,22.437h-2.04A8.158,8.158,0,0,0,10.2,30.6v6.119a8.158,8.158,0,0,0,8.159,8.159H20.4a4.08,4.08,0,0,0,4.079-4.079ZM46.913,44.873a8.158,8.158,0,0,0,8.159-8.159V30.6a8.158,8.158,0,0,0-8.159-8.159h-2.04a4.08,4.08,0,0,0-4.079,4.079V40.794a4.08,4.08,0,0,0,4.079,4.079ZM32.635,0C14.428,0,.584,15.149,0,32.635v2.04a2.039,2.039,0,0,0,2.04,2.04h2.04a2.039,2.039,0,0,0,2.04-2.04v-2.04a26.516,26.516,0,0,1,53.032,0h-.015c.01.31.015,21.126.015,21.126a5.39,5.39,0,0,1-5.39,5.39H40.794a6.119,6.119,0,0,0-6.119-6.119H30.6a6.119,6.119,0,1,0,0,12.238H53.761A11.509,11.509,0,0,0,65.271,53.761V32.635C64.687,15.149,50.842,0,32.635,0Z" transform="translate(1417.394 3190.365)" fill="#fff"/>
  </g>
</svg>
