<svg xmlns="http://www.w3.org/2000/svg" width="35.791" height="35.791" viewBox="0 0 35.791 35.791">
  <g id="Icon_feather-arrow-left-circle" data-name="Icon feather-arrow-left-circle" transform="translate(-1.5 -1.5)">
    <path id="Path_720" data-name="Path 720" d="M19.4,1.5a17.9,17.9,0,0,1,6.966,34.384A17.9,17.9,0,0,1,12.429,2.907,17.785,17.785,0,0,1,19.4,1.5Zm0,32.791A14.9,14.9,0,1,0,4.5,19.4,14.912,14.912,0,0,0,19.4,34.291Z"/>
    <path id="Path_721" data-name="Path 721" d="M18.558,26.616a1.5,1.5,0,0,1-1.061-.439l-6.558-6.558a1.5,1.5,0,0,1,0-2.121L17.5,10.939a1.5,1.5,0,1,1,2.121,2.121l-5.5,5.5,5.5,5.5a1.5,1.5,0,0,1-1.061,2.561Z" transform="translate(0.837 0.837)"/>
    <path id="Path_722" data-name="Path 722" d="M25.116,19.5H12a1.5,1.5,0,1,1,0-3H25.116a1.5,1.5,0,0,1,0,3Z" transform="translate(0.837 1.395)"/>
  </g>
</svg>
