<svg xmlns="http://www.w3.org/2000/svg" width="126.018" height="17.756" viewBox="0 0 126.018 17.756">
  <g id="r-star" transform="translate(-754.812 -5975.807)">
    <path id="star" d="M10.181,1.6l2.094,4.243a1,1,0,0,0,.753.547l4.683.68a1,1,0,0,1,.554,1.705l-3.389,3.3a1,1,0,0,0-.287.885l.8,4.664a1,1,0,0,1-1.451,1.054l-4.188-2.2a1,1,0,0,0-.931,0l-4.188,2.2A1,1,0,0,1,3.18,17.632l.8-4.664a1,1,0,0,0-.287-.885L.3,8.78A1,1,0,0,1,.858,7.075l4.683-.68a1,1,0,0,0,.753-.547L8.388,1.6A1,1,0,0,1,10.181,1.6Z" transform="translate(754.811 5974.76)" fill="#ffab1a"/>
    <path id="star-2" data-name="star" d="M10.181,1.6l2.094,4.243a1,1,0,0,0,.753.547l4.683.68a1,1,0,0,1,.554,1.705l-3.389,3.3a1,1,0,0,0-.287.885l.8,4.664a1,1,0,0,1-1.451,1.054l-4.188-2.2a1,1,0,0,0-.931,0l-4.188,2.2A1,1,0,0,1,3.18,17.632l.8-4.664a1,1,0,0,0-.287-.885L.3,8.78A1,1,0,0,1,.858,7.075l4.683-.68a1,1,0,0,0,.753-.547L8.388,1.6A1,1,0,0,1,10.181,1.6Z" transform="translate(781.674 5974.76)" fill="#ffab1a"/>
    <path id="star-3" data-name="star" d="M10.181,1.6l2.094,4.243a1,1,0,0,0,.753.547l4.683.68a1,1,0,0,1,.554,1.705l-3.389,3.3a1,1,0,0,0-.287.885l.8,4.664a1,1,0,0,1-1.451,1.054l-4.188-2.2a1,1,0,0,0-.931,0l-4.188,2.2A1,1,0,0,1,3.18,17.632l.8-4.664a1,1,0,0,0-.287-.885L.3,8.78A1,1,0,0,1,.858,7.075l4.683-.68a1,1,0,0,0,.753-.547L8.388,1.6A1,1,0,0,1,10.181,1.6Z" transform="translate(835.399 5974.76)" fill="#ffab1a"/>
    <path id="star-4" data-name="star" d="M10.181,1.6l2.094,4.243a1,1,0,0,0,.753.547l4.683.68a1,1,0,0,1,.554,1.705l-3.389,3.3a1,1,0,0,0-.287.885l.8,4.664a1,1,0,0,1-1.451,1.054l-4.188-2.2a1,1,0,0,0-.931,0l-4.188,2.2A1,1,0,0,1,3.18,17.632l.8-4.664a1,1,0,0,0-.287-.885L.3,8.78A1,1,0,0,1,.858,7.075l4.683-.68a1,1,0,0,0,.753-.547L8.388,1.6A1,1,0,0,1,10.181,1.6Z" transform="translate(808.536 5974.76)" fill="#ffab1a"/>
    <path id="star-5" data-name="star" d="M10.181,1.6l2.094,4.243a1,1,0,0,0,.753.547l4.683.68a1,1,0,0,1,.554,1.705l-3.389,3.3a1,1,0,0,0-.287.885l.8,4.664a1,1,0,0,1-1.451,1.054l-4.188-2.2a1,1,0,0,0-.931,0l-4.188,2.2A1,1,0,0,1,3.18,17.632l.8-4.664a1,1,0,0,0-.287-.885L.3,8.78A1,1,0,0,1,.858,7.075l4.683-.68a1,1,0,0,0,.753-.547L8.388,1.6A1,1,0,0,1,10.181,1.6Z" transform="translate(862.262 5974.76)" fill="#ffab1a"/>
  </g>
</svg>
