<svg xmlns="http://www.w3.org/2000/svg" width="758" height="564.048" viewBox="0 0 758 564.048">
  <g id="vision" transform="translate(0 -54.953)">
    <g id="Background_Complete" data-name="Background Complete" transform="translate(0 54.953)">
      <rect id="Rectangle_608" data-name="Rectangle 608" width="758" height="0.379" transform="translate(0 496.407)" fill="#ebebeb"/>
      <g id="Group_1490" data-name="Group 1490" transform="translate(60.025)">
        <path id="Path_445" data-name="Path 445" d="M340.985,483.749H48.247a8.664,8.664,0,0,1-8.653-8.653V63.6a8.663,8.663,0,0,1,8.653-8.652H340.985a8.662,8.662,0,0,1,8.652,8.652V475.1A8.664,8.664,0,0,1,340.985,483.749ZM48.247,55.332A8.283,8.283,0,0,0,39.973,63.6V475.1a8.283,8.283,0,0,0,8.274,8.274H340.985a8.283,8.283,0,0,0,8.273-8.274V63.6a8.282,8.282,0,0,0-8.273-8.273Z" transform="translate(-39.594 -54.953)" fill="#ebebeb"/>
        <g id="Group_1489" data-name="Group 1489" transform="translate(327.908)">
          <path id="Path_446" data-name="Path 446" d="M557.282,483.749H264.544a8.664,8.664,0,0,1-8.652-8.653V63.6a8.662,8.662,0,0,1,8.652-8.652H557.282a8.663,8.663,0,0,1,8.653,8.652V475.1A8.664,8.664,0,0,1,557.282,483.749ZM264.544,55.332a8.282,8.282,0,0,0-8.273,8.273V475.1a8.283,8.283,0,0,0,8.273,8.274H557.282a8.283,8.283,0,0,0,8.274-8.274V63.6a8.282,8.282,0,0,0-8.274-8.273Z" transform="translate(-255.892 -54.953)" fill="#ebebeb"/>
        </g>
      </g>
      <rect id="Rectangle_609" data-name="Rectangle 609" width="758" height="0.379" transform="translate(0 496.407)" fill="#ebebeb"/>
      <rect id="Rectangle_610" data-name="Rectangle 610" width="50.213" height="0.379" transform="translate(631.837 520.809)" fill="#ebebeb"/>
      <rect id="Rectangle_611" data-name="Rectangle 611" width="13.179" height="0.379" transform="translate(488.951 524.923)" fill="#ebebeb"/>
      <rect id="Rectangle_612" data-name="Rectangle 612" width="29.096" height="0.379" transform="translate(601.224 506.731)" fill="#ebebeb"/>
      <rect id="Rectangle_613" data-name="Rectangle 613" width="65.481" height="0.379" transform="translate(79.528 509.278)" fill="#ebebeb"/>
      <rect id="Rectangle_614" data-name="Rectangle 614" width="142.013" height="0.379" transform="translate(199.31 515.679)" fill="#ebebeb"/>
      <g id="Group_1495" data-name="Group 1495" transform="translate(88.077 53.489)">
        <path id="Path_447" data-name="Path 447" d="M174.9,181.209c18.639.05,70.9,7.635,70.9-20.439,0-23.854-25.542-22.1-25.542-22.1S221,118,198.243,115.257c-23.34-2.82-26.864,19.512-26.864,19.512s-40.517-14.22-34.351,21.464c0,0-22.46-3.966-22.46,12.1C114.569,186.283,156.847,181.162,174.9,181.209Z" transform="translate(-28.959 -77.452)" fill="#f0f0f0"/>
        <g id="Group_1491" data-name="Group 1491" transform="translate(0 164.417)">
          <path id="Path_448" data-name="Path 448" d="M180.557,350.317c37.833.112,143.912,17.487,143.912-46.816,0-54.637-51.844-50.616-51.844-50.616s1.5-47.337-44.693-53.632c-47.375-6.457-54.526,44.693-54.526,44.693s-82.235-32.57-69.721,49.162c0,0-45.588-9.085-45.588,27.709C58.1,361.937,143.91,350.207,180.557,350.317Z" transform="translate(-58.098 -198.69)" fill="#f5f5f5"/>
          <path id="Path_449" data-name="Path 449" d="M259.193,331.013c-20.93.062-79.614,9.674-79.614-25.9,0-30.226,28.681-28,28.681-28s-.829-26.187,24.724-29.668c26.209-3.572,30.164,24.724,30.164,24.724s45.494-18.018,38.572,27.2c0,0,25.219-5.027,25.219,15.33C326.939,337.44,279.467,330.952,259.193,331.013Z" transform="translate(4.586 -173.695)" fill="#f0f0f0"/>
        </g>
        <path id="Path_450" data-name="Path 450" d="M332.145,227.937c20.875.053,79.407,8.058,79.407-21.568,0-25.173-28.607-23.321-28.607-23.321s.828-21.811-24.659-24.711c-26.14-2.974-30.087,20.592-30.087,20.592s-45.375-15.005-38.47,22.651c0,0-25.153-4.186-25.153,12.768C264.575,233.291,311.923,227.887,332.145,227.937Z" transform="translate(48.444 -55.23)" fill="#f0f0f0"/>
        <g id="Group_1494" data-name="Group 1494" transform="translate(318.348)">
          <g id="Group_1493" data-name="Group 1493">
            <g id="Group_1492" data-name="Group 1492">
              <path id="Path_451" data-name="Path 451" d="M268.09,532.978l30.5-197.771,90.719-114.534L420.242,90.236s74.971,72.447,77.051,74.348,18.585,197.447,20.877,200.432S542,402.1,542,402.1l10.021,130.28Z" transform="translate(-268.09 -90.236)" fill="#fafafa"/>
              <path id="Path_452" data-name="Path 452" d="M268.09,532.977l43.476-170.892,61.6-58.72L384.7,377.692l15.515-84.547,17.619,28.825-3.825-99.389,3.06-31.8,10.337,21.109L420.241,90.236l52.269,1.209,10.88,57.423,13.9,15.716L518.17,365.015,542,402.1,552.024,532.38Z" transform="translate(-268.09 -90.236)" fill="#ebebeb"/>
              <path id="Path_453" data-name="Path 453" d="M369.355,90.671,400.4,191.133l18.5,14.7s9.757,40.833,9.646,38.221-1.122-48.356-1.122-48.356l4.791-37.328-12.089-66.49Z" transform="translate(-215.837 -90.012)" fill="#f5f5f5"/>
            </g>
            <path id="Path_454" data-name="Path 454" d="M433.05,271.489l7.245,33.775,16.587,3.309Z" transform="translate(-182.97 3.29)" fill="#f5f5f5"/>
          </g>
        </g>
      </g>
      <path id="Path_455" data-name="Path 455" d="M392.6,382.671c33.158.1,126.13,15.327,126.13-41.032,0-47.884-45.438-44.361-45.438-44.361s1.313-41.488-39.172-47.005c-41.52-5.658-47.789,39.172-47.789,39.172s-72.074-28.546-61.105,43.088c0,0-39.956-7.964-39.956,24.286C285.266,392.856,360.475,382.576,392.6,382.671Z" transform="translate(147.197 45.577)" fill="#f5f5f5"/>
    </g>
    <g id="Shadow" transform="translate(88.306 564.231)">
      <rect id="Rectangle_615" data-name="Rectangle 615" width="9.601" height="0.379" transform="translate(70.2)" fill="#ebebeb"/>
      <ellipse id="_Path_" data-name="&lt;Path&gt;" cx="293.936" cy="17.166" rx="293.936" ry="17.166" transform="translate(0 20.437)" fill="#f5f5f5"/>
    </g>
    <g id="Metric" transform="translate(94.058 359.065)">
      <g id="Group_1500" data-name="Group 1500" transform="translate(0 0)">
        <g id="Group_1496" data-name="Group 1496" transform="translate(269.297)">
          <rect id="Rectangle_616" data-name="Rectangle 616" width="89.702" height="242.607" transform="translate(0.023 0.235)" fill="#407bff"/>
          <rect id="Rectangle_617" data-name="Rectangle 617" width="25.348" height="242.89" opacity="0.2"/>
        </g>
        <g id="Group_1497" data-name="Group 1497" transform="translate(179.497 97.26)">
          <rect id="Rectangle_618" data-name="Rectangle 618" width="89.702" height="145.581" fill="#407bff"/>
          <rect id="Rectangle_619" data-name="Rectangle 619" width="26.954" height="145.43" opacity="0.2"/>
        </g>
        <g id="Group_1498" data-name="Group 1498" transform="translate(89.726 128.171)">
          <rect id="Rectangle_620" data-name="Rectangle 620" width="89.702" height="114.67" fill="#407bff"/>
          <rect id="Rectangle_621" data-name="Rectangle 621" width="26.682" height="114.519" opacity="0.2"/>
        </g>
        <g id="Group_1499" data-name="Group 1499" transform="translate(0 159.005)">
          <rect id="Rectangle_622" data-name="Rectangle 622" width="89.699" height="83.757" transform="translate(0 0.083)" fill="#407bff"/>
          <rect id="Rectangle_623" data-name="Rectangle 623" width="25.348" height="83.683" transform="translate(0.004)" opacity="0.2"/>
        </g>
      </g>
    </g>
    <g id="Character" transform="translate(257.882 102.209)">
      <g id="Group_1541" data-name="Group 1541">
        <g id="Group_1540" data-name="Group 1540">
          <g id="Group_1504" data-name="Group 1504" transform="translate(38.942 55.79)">
            <path id="Path_456" data-name="Path 456" d="M235.139,136.805c-4.261,5.15-8.647,10.2-13.039,15.234l-3.317,3.757-2.977,3.32a10.377,10.377,0,0,0-2.318,5.235l-1,9.786c-.335,3.319-.656,6.639-1.046,9.956-.734,6.636-1.495,13.27-2.386,19.9a4.244,4.244,0,0,1-8.444-.321c-.384-6.67-.638-13.335-.864-20-.136-3.332-.2-6.661-.287-9.992l-.226-10.16a24.584,24.584,0,0,1,4.278-13.318l3.3-4.439,2.991-3.975c4.022-5.274,8.048-10.539,12.2-15.7a8.476,8.476,0,0,1,13.207,10.627Z" transform="translate(-194.019 -122.926)" fill="#407bff"/>
            <g id="Group_1501" data-name="Group 1501" transform="translate(0 79.964)">
              <path id="Path_457" data-name="Path 457" d="M201.335,177.218l-5.541,9.407,12.756,1.293,2.245-9.551a2.025,2.025,0,0,0-1.607-2.468C207.073,175.537,203.765,175.387,201.335,177.218Z" transform="translate(-195.794 -175.673)" fill="#cb7a63"/>
              <path id="Path_458" data-name="Path 458" d="M195.794,182.9l.582,3.328a3.428,3.428,0,0,0,3.387,2.838l4.154-.011a3.433,3.433,0,0,0,3.02-1.821l1.613-3.041Z" transform="translate(-195.794 -171.945)" fill="#cb7a63"/>
            </g>
            <g id="Group_1503" data-name="Group 1503" transform="translate(4.639 74.457)">
              <g id="Group_1502" data-name="Group 1502">
                <path id="Path_459" data-name="Path 459" d="M198.854,172.04l12.279.42-.793,7.335-10.37-.8Z" transform="translate(-198.854 -172.04)" fill="#407bff"/>
              </g>
              <path id="Path_460" data-name="Path 460" d="M198.854,172.04l12.279.42-.793,7.335-10.37-.8Z" transform="translate(-198.854 -172.04)" fill="#fff" opacity="0.3"/>
            </g>
          </g>
          <g id="Group_1511" data-name="Group 1511" transform="translate(0 143.304)">
            <g id="Group_1505" data-name="Group 1505" transform="translate(22.531)">
              <path id="Path_461" data-name="Path 461" d="M218.4,244.6l-2.018,3.032L214.84,244.5l3.675-47.6c.585-7.568-1.966-13.785-11.381-14.014-8.8-.214-14.149,5.8-14.763,13.356l-3.855,47.513-2.109,3.024-1.439-3.124,3.879-47.5c.717-8.782,4.615-15.83,18.462-15.5,13.873.335,15.418,7.528,14.743,16.329Z" transform="translate(-184.969 -180.652)" fill="#263238"/>
            </g>
            <g id="Group_1510" data-name="Group 1510" transform="translate(0 0.403)">
              <g id="Group_1506" data-name="Group 1506" transform="translate(0 31.43)">
                <path id="Path_462" data-name="Path 462" d="M187.053,201.662l-2.435-.011a10.058,10.058,0,0,0-10.022,8.755l-4.489,34.3,15.794.561Z" transform="translate(-170.107 -201.651)" fill="#263238"/>
                <path id="Path_463" data-name="Path 463" d="M187.053,201.662l-2.435-.011a10.058,10.058,0,0,0-10.022,8.755l-4.489,34.3,15.794.561Z" transform="translate(-170.107 -201.651)" fill="#fff" opacity="0.2"/>
              </g>
              <g id="Group_1509" data-name="Group 1509" transform="translate(8.077)">
                <g id="Group_1507" data-name="Group 1507" transform="translate(19.964)">
                  <path id="Path_464" data-name="Path 464" d="M222.1,244.869l-3.569-.1.349-47.6c.055-7.568-2.932-13.785-12.361-14.014-8.82-.214-13.744,5.8-13.829,13.356l-.532,47.513-3.555-.1.558-47.5c.1-8.781,3.508-15.829,17.378-15.494,13.9.334,15.944,7.528,15.885,16.329Z" transform="translate(-188.604 -180.918)" fill="#263238"/>
                </g>
                <path id="Path_465" data-name="Path 465" d="M245.635,247.122l-70.2-2.083.679-35.386a8.025,8.025,0,0,1,8.189-7.994L235.413,203a10.813,10.813,0,0,1,10.41,10.877Z" transform="translate(-175.435 -170.218)" fill="#263238"/>
                <path id="Path_466" data-name="Path 466" d="M237.817,246.892l-54.7-1.624a7.949,7.949,0,0,1-7.6-8.12l.562-27.5a8.025,8.025,0,0,1,8.189-7.994L235.373,203a10.813,10.813,0,0,1,10.41,10.877l-.155,25.32A7.621,7.621,0,0,1,237.817,246.892Z" transform="translate(-175.396 -170.218)" fill="#fff" opacity="0.4"/>
                <g id="Group_1508" data-name="Group 1508" transform="translate(19.964)" opacity="0.3">
                  <path id="Path_467" data-name="Path 467" d="M222.1,244.869,220.3,247.9l-1.763-3.132.349-47.6c.055-7.568-2.932-13.785-12.361-14.014-8.82-.214-13.744,5.8-13.829,13.356l-.532,47.513-1.9,3.023-1.657-3.123.558-47.5c.1-8.781,3.508-15.829,17.378-15.494,13.9.334,15.944,7.528,15.885,16.329Z" transform="translate(-188.604 -180.918)" fill="#fff"/>
                </g>
                <path id="Path_468" data-name="Path 468" d="M193.736,211.237l-5.851-.158.026-2.2,5.849.157Z" transform="translate(-169.011 -166.492)" fill="#263238"/>
                <path id="Path_469" data-name="Path 469" d="M193.636,220.664l-5.863-.164.027-2.212,5.861.163Z" transform="translate(-169.069 -161.636)" fill="#263238"/>
                <path id="Path_470" data-name="Path 470" d="M213.575,211.774l-5.873-.158.016-2.208,5.871.158Z" transform="translate(-158.786 -166.218)" fill="#263238"/>
                <path id="Path_471" data-name="Path 471" d="M213.517,221.221l-5.886-.164.016-2.217,5.884.163Z" transform="translate(-158.822 -161.351)" fill="#263238"/>
                <path id="Path_472" data-name="Path 472" d="M208.468,213.318l-12.561-.34.048-4.712,12.552.336Z" transform="translate(-164.871 -166.807)" fill="#fff"/>
              </g>
            </g>
          </g>
          <g id="Group_1539" data-name="Group 1539" transform="translate(46.5)">
            <g id="Group_1534" data-name="Group 1534" transform="translate(20.977)">
              <g id="Group_1514" data-name="Group 1514" transform="translate(4.618)">
                <path id="Path_473" data-name="Path 473" d="M240.159,97c.482-.092,1,.412,1.154,1.143s-.1,1.416-.579,1.508-1-.412-1.154-1.143C239.384,97.749,239.675,97.088,240.159,97Z" transform="translate(-206.386 -80.521)" fill="#263238"/>
                <path id="Path_474" data-name="Path 474" d="M240.147,97.823a2.446,2.446,0,0,0,1.145-1.254,2.264,2.264,0,0,1-1.581.6A.883.883,0,0,1,240.147,97.823Z" transform="translate(-206.287 -80.736)" fill="#263238"/>
                <path id="Path_475" data-name="Path 475" d="M241.139,104.647a4.312,4.312,0,0,0,3.362-1.4,27.018,27.018,0,0,1-4.839-5.523Z" transform="translate(-206.312 -80.141)" fill="#b74d3c"/>
                <path id="Path_476" data-name="Path 476" d="M237.52,96.95a3.489,3.489,0,0,1,2.912-1.31h0a.429.429,0,0,0,.146.021.447.447,0,1,0-.018-.893,4.357,4.357,0,0,0-3.688,1.539.447.447,0,0,0,.34.738A.439.439,0,0,0,237.52,96.95Z" transform="translate(-207.807 -81.672)" fill="#263238"/>
                <path id="Path_477" data-name="Path 477" d="M239.169,132.979c-12.612.136-14.545-6.729-14.545-6.729,3.748-3.678,3.934-10.407,3.137-16.409a14.079,14.079,0,0,0,3.746,3.594c3.018,1.983,9.561-1.2,9.561-1.2.017,0,0,1.119.085,2.729.2,3.932,1.067,10.832,4.645,11.9C245.8,126.86,253.07,132.827,239.169,132.979Z" transform="translate(-214.071 -73.888)" fill="#cb7a63"/>
                <path id="Path_478" data-name="Path 478" d="M240.441,114.741c-.133.581-.267,1.16-.349,1.774a.271.271,0,0,1-.156.055,11.508,11.508,0,0,1-9.237-1.652,13.869,13.869,0,0,1-3.754-3.587c-.191-1.524-.47-3.011-.749-4.374l13.733,7.51Z" transform="translate(-213.26 -75.376)" fill="#cb7a63"/>
                <g id="Group_1512" data-name="Group 1512" transform="translate(7.908 5.56)">
                  <path id="Path_479" data-name="Path 479" d="M251.19,113.3a12.8,12.8,0,0,1-6.21,10.739h-.018a.061.061,0,0,1-.052.018,10.543,10.543,0,0,1-3.106,1.313.271.271,0,0,1-.156.055,11.508,11.508,0,0,1-9.237-1.652,13.869,13.869,0,0,1-3.754-3.587c-2.473-3.391-3.5-7.92-5.273-14.279A12.581,12.581,0,0,1,237.707,90C247.294,91.7,251.38,104.78,251.19,113.3Z" transform="translate(-222.88 -89.792)" fill="#cb7a63"/>
                  <path id="Path_480" data-name="Path 480" d="M237.794,114.086a6.608,6.608,0,0,1-2.238,1.017c-.085-1.61-.068-2.729-.085-2.729.085-1.407.186-2.814.186-2.814C235.657,109.611,237.133,114.086,237.794,114.086Z" transform="translate(-216.382 -79.592)" opacity="0.2"/>
                </g>
                <path id="Path_481" data-name="Path 481" d="M250.569,97.994c-1.026,1.633-4.258,3.012-4.149,2.633.556-1.355.453-3.954-1.225-3.344.464,1.035,1.856,8.82,1.225,9.763-.344.517-.672,6.745-3.323,12.236-2.115,4.381-2.115,5.74-2.115,5.74l-8.609,1.662c-3.223-.4-6.225-4.521-6.49-4.976-1.125-1.936-4.563-4.478-6.352-5.824a5.154,5.154,0,0,1-1.707-2.356c-.59-1.652.616-7.607.879-10.407.378-4.028,2.492-7.754,8.333-10.148,3.613-1.48,6.652-4.725,10.339-6.009s8.071-1.226,11.185,1.129C250.09,89.248,253.142,93.905,250.569,97.994Z" transform="translate(-217.663 -86.125)" fill="#263238"/>
                <path id="Path_482" data-name="Path 482" d="M237.678,97.746c2.653.778,4.036,4.686,4.149,7.169.13,2.741-1.7,4.475-4.093,2.638a10.458,10.458,0,0,1-3.661-5.6C233.424,99.27,235.025,96.968,237.678,97.746Z" transform="translate(-209.27 -80.207)" fill="#cb7a63"/>
                <g id="Group_1513" data-name="Group 1513" transform="translate(29.281 25.513)">
                  <path id="Path_483" data-name="Path 483" d="M239.294,104.112a1.158,1.158,0,1,1-1.158-1.158A1.158,1.158,0,0,1,239.294,104.112Z" transform="translate(-236.978 -102.954)" fill="#407bff"/>
                  <path id="Path_484" data-name="Path 484" d="M239.294,104.112a1.158,1.158,0,1,1-1.158-1.158A1.158,1.158,0,0,1,239.294,104.112Z" transform="translate(-236.978 -102.954)" fill="#fff" opacity="0.3"/>
                </g>
              </g>
              <g id="_Group_" data-name="&lt;Group&gt;" transform="translate(0 23.339)">
                <g id="Group_1520" data-name="Group 1520">
                  <path id="Path_485" data-name="Path 485" d="M222.236,126.646s1.96-6.047,4.915-7.957,15.932.071,17.966.867,4.084,5.482,4.084,5.482Z" transform="translate(-210.685 -93.077)" fill="#407bff"/>
                  <path id="Path_486" data-name="Path 486" d="M222.236,126.646s1.96-6.047,4.915-7.957,15.932.071,17.966.867,4.084,5.482,4.084,5.482Z" transform="translate(-210.685 -93.077)" fill="#fff" opacity="0.3"/>
                  <g id="Group_1519" data-name="Group 1519">
                    <g id="Group_1516" data-name="Group 1516" transform="translate(0 29.966)">
                      <path id="Path_487" data-name="Path 487" d="M255.8,122.306a41.661,41.661,0,0,0-4.888-.819,180.9,180.9,0,0,0-20.892.226,45.577,45.577,0,0,0-7.406,1.254,10.448,10.448,0,0,0-7.968,10.908c1.034,14.193,5.229,22.52,5.847,31.863,1.234,18.613-1.736,31.666-2.242,36.011l9.545,1.449a96.551,96.551,0,0,0,37.744-8.059h0s-2.459-22.505-.082-30.614c6.495-22.155,2.279-25.66,1-32A13,13,0,0,0,255.8,122.306Z" transform="translate(-214.617 -121.286)" fill="#407bff"/>
                      <g id="Group_1515" data-name="Group 1515" transform="translate(0.005)">
                        <path id="Path_488" data-name="Path 488" d="M265.453,164.519c-.781,2.644-1.034,6.814-1.034,11.221,0,9.154,1.119,19.393,1.119,19.393a96.347,96.347,0,0,1-37.751,8.068l-9.543-1.457c.508-4.34,3.475-17.393,2.254-36.005-.628-9.34-4.813-17.663-5.849-31.869a10.426,10.426,0,0,1,7.968-10.9,44.833,44.833,0,0,1,7.407-1.254,182.807,182.807,0,0,1,20.884-.238,41.243,41.243,0,0,1,4.882.831,12.98,12.98,0,0,1,10.662,10.222c.458,2.271,1.307,4.187,1.883,6.73.711,3.085,1.051,7.1-.136,13.832A104.49,104.49,0,0,1,265.453,164.519Z" transform="translate(-214.62 -121.287)" fill="#fff" opacity="0.1"/>
                      </g>
                    </g>
                    <g id="Group_1517" data-name="Group 1517" transform="translate(34.264)">
                      <path id="Path_489" data-name="Path 489" d="M246.879,131.819c3.484.491,6.936,1.186,10.4,1.772,3.456.666,6.91,1.351,10.354,2.092l-1.248-.1c1.537.068,2.889.188,3.743.241.411.03.7.021.593.085-.021.036-.223.1-.458.252a4.351,4.351,0,0,0-1.035.807,3.73,3.73,0,0,0-1.09,2.177c-.006.346.1.264.121,0a10.417,10.417,0,0,0-.283-2.67l.158.447c-1.748-5.045-3.408-10.125-4.929-15.262-1.475-5.153-2.893-10.327-3.9-15.665a3.775,3.775,0,0,1,6.907-2.706c2.888,4.6,5.365,9.36,7.783,14.143,2.373,4.8,4.606,9.657,6.752,14.546l.158.449a25.414,25.414,0,0,1,1.5,5.359,13.539,13.539,0,0,1,.017,4.1,10.552,10.552,0,0,1-2.933,5.787,11.053,11.053,0,0,1-2.726,1.968,13.319,13.319,0,0,1-2.4.926,19.813,19.813,0,0,1-3.485.614c-1.893.177-3.288.186-4.5.258l-.194.012-1.055-.111c-3.5-.367-7-.788-10.491-1.229-3.479-.523-6.977-.935-10.441-1.552a8.477,8.477,0,0,1,2.67-16.74Z" transform="translate(-237.218 -101.52)" fill="#407bff"/>
                    </g>
                    <g id="Group_1518" data-name="Group 1518" transform="translate(34.264)" opacity="0.1">
                      <path id="Path_490" data-name="Path 490" d="M246.879,131.819c3.484.491,6.936,1.186,10.4,1.772,3.456.666,6.91,1.351,10.354,2.092l-1.248-.1c1.537.068,2.889.188,3.743.241.411.03.7.021.593.085-.021.036-.223.1-.458.252a4.351,4.351,0,0,0-1.035.807,3.73,3.73,0,0,0-1.09,2.177c-.006.346.1.264.121,0a10.417,10.417,0,0,0-.283-2.67l.158.447c-1.748-5.045-3.408-10.125-4.929-15.262-1.475-5.153-2.893-10.327-3.9-15.665a3.775,3.775,0,0,1,6.907-2.706c2.888,4.6,5.365,9.36,7.783,14.143,2.373,4.8,4.606,9.657,6.752,14.546l.158.449a25.414,25.414,0,0,1,1.5,5.359,13.539,13.539,0,0,1,.017,4.1,10.552,10.552,0,0,1-2.933,5.787,11.053,11.053,0,0,1-2.726,1.968,13.319,13.319,0,0,1-2.4.926,19.813,19.813,0,0,1-3.485.614c-1.893.177-3.288.186-4.5.258l-.194.012-1.055-.111c-3.5-.367-7-.788-10.491-1.229-3.479-.523-6.977-.935-10.441-1.552a8.477,8.477,0,0,1,2.67-16.74Z" transform="translate(-237.218 -101.52)" fill="#fff"/>
                    </g>
                  </g>
                </g>
              </g>
              <g id="Group_1533" data-name="Group 1533" transform="translate(45.447 3.337)">
                <g id="Group_1531" data-name="Group 1531">
                  <g id="Group_1529" data-name="Group 1529" transform="translate(2.21)">
                    <g id="Group_1527" data-name="Group 1527">
                      <path id="Path_491" data-name="Path 491" d="M285.149,105.3l45.452-1.393-.7-14.239-45.361,2.988Z" transform="translate(-226.192 -87.634)" fill="#407bff"/>
                      <path id="Path_492" data-name="Path 492" d="M262.45,104.715l36.754-1.184-.56-11.674-36.689,2.366Z" transform="translate(-237.847 -86.504)" fill="#407bff"/>
                      <path id="Path_493" data-name="Path 493" d="M283.516,103.914l2.408.256-.6-12.475-2.372.486Z" transform="translate(-227.011 -86.588)" fill="#263238"/>
                      <path id="Path_494" data-name="Path 494" d="M283.516,103.914l2.408.256-.6-12.475-2.372.486Z" transform="translate(-227.011 -86.588)" opacity="0.2"/>
                      <path id="Path_495" data-name="Path 495" d="M285.123,104.337l2.467-.076-.611-12.729-2.462.162Z" transform="translate(-226.205 -86.672)" fill="#263238"/>
                      <path id="Path_496" data-name="Path 496" d="M258.622,102.106l3.648,1.693-.482-10.229-3.472,2.037Z" transform="translate(-239.725 -85.62)" fill="#263238"/>
                      <g id="Group_1521" data-name="Group 1521" transform="translate(0 11.008)">
                        <path id="Path_497" data-name="Path 497" d="M246.273,100.937l10.807-.563-.224-4.787-10.8.646Z" transform="translate(-246.053 -95.587)" fill="#263238"/>
                        <path id="Path_498" data-name="Path 498" d="M246.273,100.937l10.807-.563-.224-4.787-10.8.646Z" transform="translate(-246.053 -95.587)" opacity="0.2"/>
                      </g>
                      <path id="Path_499" data-name="Path 499" d="M252.455,101.821l12.025-.462-.315-6.7-12.011.712Z" transform="translate(-242.905 -85.059)" fill="#263238"/>
                      <path id="Path_500" data-name="Path 500" d="M258.622,102.106l3.648,1.693-.482-10.229-3.472,2.037Z" transform="translate(-239.725 -85.62)" opacity="0.2"/>
                      <path id="Path_501" data-name="Path 501" d="M261.134,103.973l1.994-.064-.494-10.492-1.99.129Z" transform="translate(-238.524 -85.699)" fill="#263238"/>
                      <path id="Path_502" data-name="Path 502" d="M314.139,104.043l7.13-.255-.7-14.294-7.124.364Z" transform="translate(-211.278 -87.724)" fill="#263238"/>
                      <g id="Group_1522" data-name="Group 1522" transform="translate(105.205)">
                        <path id="Path_503" data-name="Path 503" d="M316.268,105.655l9.1-.253.227-.629a20.647,20.647,0,0,0-1.067-16.447h0l-9.075.628.2.476a23.188,23.188,0,0,1,.62,16.226Z" transform="translate(-315.449 -88.326)" fill="#407bff"/>
                      </g>
                      <g id="Group_1526" data-name="Group 1526" transform="translate(24.887 0.619)">
                        <g id="Group_1523" data-name="Group 1523" transform="translate(37.257 2.767)" opacity="0.4">
                          <path id="Path_504" data-name="Path 504" d="M309.612,90.786l3.679-.227.074,1.568-3.737.217A6.148,6.148,0,0,1,309.612,90.786Z" transform="translate(-275.422 -90.559)" fill="#fff"/>
                          <path id="Path_505" data-name="Path 505" d="M319.01,90.824a6.689,6.689,0,0,0,.017,1.548l-31.906,1.807-.076-1.417Z" transform="translate(-287.045 -90.422)" fill="#fff"/>
                        </g>
                        <g id="Group_1524" data-name="Group 1524" transform="translate(0 6.028)" opacity="0.4">
                          <path id="Path_506" data-name="Path 506" d="M262.469,94.61l.067,1.273,29.975-1.78-.065-1.392Z" transform="translate(-262.469 -92.711)" fill="#fff"/>
                        </g>
                        <g id="Group_1525" data-name="Group 1525" transform="translate(81.12)" opacity="0.4">
                          <path id="Path_507" data-name="Path 507" d="M315.978,89.234l.089,1.589,7.11-.469-.077-1.62Z" transform="translate(-315.978 -88.734)" fill="#fff"/>
                        </g>
                      </g>
                    </g>
                    <g id="Group_1528" data-name="Group 1528" transform="translate(25.525 14.088)">
                      <path id="Path_508" data-name="Path 508" d="M323.915,98.2a6.762,6.762,0,0,0,.015,1.624l-7.363.252-.089-1.59Z" transform="translate(-235.239 -97.317)" opacity="0.3" style="isolation: isolate"/>
                      <path id="Path_509" data-name="Path 509" d="M325.99,97.619a6.658,6.658,0,0,0,.015,1.574l-39.025,1.395-.077-1.416Z" transform="translate(-250.499 -97.619)" opacity="0.3" style="isolation: isolate"/>
                      <path id="Path_510" data-name="Path 510" d="M291.935,98.523a6.773,6.773,0,0,0,.018,1.392l-29,1.019-.067-1.273Z" transform="translate(-262.89 -97.153)" opacity="0.3" style="isolation: isolate"/>
                    </g>
                  </g>
                  <g id="Group_1530" data-name="Group 1530" transform="translate(0 10.233)">
                    <path id="Path_511" data-name="Path 511" d="M244.6,96.678l.094,4.578a1.49,1.49,0,0,0,1.578,1.383l3.716-.062-.155-7.5-3.714.136A1.51,1.51,0,0,0,244.6,96.678Z" transform="translate(-244.595 -95.076)" fill="#407bff"/>
                  </g>
                </g>
                <path id="Path_512" data-name="Path 512" d="M260.79,109.837,262.2,101.3a4.3,4.3,0,0,0,.039-1.072l-.4-4.521a1.624,1.624,0,0,0-1.114-1.357l-6.816-.079a1.763,1.763,0,0,0-2.186.949l-1.223,5.589a2.694,2.694,0,0,0,.026,1.267l2.022,7.7a1.95,1.95,0,0,0,1.522,1.284l4.454.039A1.891,1.891,0,0,0,260.79,109.837Z" transform="translate(-241.582 -85.301)" fill="#ce7a63"/>
                <g id="Group_1532" data-name="Group 1532" transform="translate(9.696 22.059)">
                  <path id="Path_513" data-name="Path 513" d="M264.511,108.949l-11.59,4.076-1.93-7.12,9.951-3.027Z" transform="translate(-250.991 -102.877)" fill="#407bff"/>
                  <path id="Path_514" data-name="Path 514" d="M264.511,108.949l-11.59,4.076-1.93-7.12,9.951-3.027Z" transform="translate(-250.991 -102.877)" fill="#fff" opacity="0.3"/>
                </g>
              </g>
              <path id="Path_515" data-name="Path 515" d="M252.985,147.973,244.1,131.209l9.019,2.932C253.833,137.226,254.172,141.243,252.985,147.973Z" transform="translate(-199.402 -62.861)" opacity="0.2"/>
            </g>
            <g id="Group_1538" data-name="Group 1538" transform="translate(0 127.155)">
              <path id="Path_516" data-name="Path 516" d="M280.792,234.242l-1.837,22.772,10.364.2,2.844-23.458Z" transform="translate(-160.441 -137.104)" fill="#ce7a63"/>
              <g id="Group_1535" data-name="Group 1535" transform="translate(115.703 116.989)">
                <path id="Path_517" data-name="Path 517" d="M291.917,247.176l-11.822.24a.981.981,0,0,0-.922.817L277.138,258.6a1.689,1.689,0,0,0,1.208,2.013,1.541,1.541,0,0,0,.333.036c4.262-.165,8.048-.493,13.354-.593,6.263-.124,4.681.711,12.045.675,4.436-.026,5.194-5.456,3.311-5.683-8.62-.99-9.54-3.761-12.894-7A3.618,3.618,0,0,0,291.917,247.176Z" transform="translate(-277.101 -247.169)" fill="#263238"/>
              </g>
              <g id="Group_1537" data-name="Group 1537">
                <path id="Path_518" data-name="Path 518" d="M206.936,298.446l-4.192,20.914,11.145,3.4,5.367-21.362Z" transform="translate(-199.766 -103.722)" fill="#ce7a63"/>
                <path id="Path_519" data-name="Path 519" d="M265.987,170.6s-15.862,92.573-24.477,119.817c-6.135,19.4-22.588,82.863-22.588,82.863l-14.927-3.309s-1.669-43.2,6.632-65.5c2.832-7.606,6.528-14.47,7.528-19.186,4.275-20.149-4.536-56.7-.641-83.967a110.7,110.7,0,0,1,6.622-25.317Z" transform="translate(-199.192 -169.688)" fill="#263238"/>
                <path id="Path_520" data-name="Path 520" d="M241.51,288.583c-6.135,19.4-22.588,82.863-22.588,82.863l-14.927-3.309s-1.669-43.2,6.632-65.5c2.832-7.606,6.528-14.47,7.528-19.186,4.275-20.149-4.536-56.7-.641-83.967a110.7,110.7,0,0,1,6.622-25.317" transform="translate(-199.192 -167.85)" fill="#263238"/>
                <path id="Path_521" data-name="Path 521" d="M232.011,189.479,240,220.833l5.842-29.991Z" transform="translate(-184.664 -159.949)" opacity="0.2" style="isolation: isolate"/>
                <path id="Path_522" data-name="Path 522" d="M322.328,278.06l-14.584.47s1.076-19.086,1.076-46.92a51.621,51.621,0,0,1,1.607-12.31,70.914,70.914,0,0,1,5.442-14.842s-1.561.091-4.23.212c-8.249.424-59.371,3.065-60.372,2.99-.758-.076-5.4.54-13.732-3.52-15.475-7.545-15.63-28.728-15.63-28.728L261.763,170c0,.03.653.121,10.25.288,29.092.5,64.842,1.627,71.117,11.614C351.956,195.952,322.328,278.06,322.328,278.06Z" transform="translate(-189.878 -170)" fill="#263238"/>
                <g id="Group_1536" data-name="Group 1536" transform="translate(0 213.623)">
                  <path id="Path_523" data-name="Path 523" d="M215.46,310.918l-12.23.165a.933.933,0,0,0-.908.819L200.8,322.355a1.824,1.824,0,0,0,1.364,2.039,1.593,1.593,0,0,0,.347.039c4.4-.139,8.308-.446,13.8-.512,6.478-.085,4.888.749,12.51.759,4.592,0,5.071-5.474,3.108-5.717-8.981-1.054-10.092-3.858-13.749-7.151A4,4,0,0,0,215.46,310.918Z" transform="translate(-200.78 -310.912)" fill="#263238"/>
                </g>
              </g>
            </g>
          </g>
        </g>
        <path id="Path_524" data-name="Path 524" d="M280.3,207.83a70.914,70.914,0,0,1,5.442-14.842s-1.561.091-4.23.212a1.079,1.079,0,0,0-.394-.076l10.63-.894Z" transform="translate(-113.248 -31.375)" opacity="0.2" style="isolation: isolate"/>
      </g>
    </g>
  </g>
</svg>
