<svg xmlns="http://www.w3.org/2000/svg" width="1402.227" height="1885.473" viewBox="0 0 1402.227 1885.473">
  <g id="ft-des" transform="translate(-1262.887 -5916.027)">
    <rect id="Rectangle_591" data-name="Rectangle 591" width="1233.234" height="269.388" rx="134.694" transform="translate(1262.887 6788.056) rotate(-45)" fill="#2cabe1"/>
    <g id="Path_433" data-name="Path 433" transform="translate(1345.315 7141.601) rotate(-45)" fill="#fff">
      <path d="M 466.6190185546875 817.2380981445312 C 273.2869873046875 817.2380981445312 115.9999313354492 659.9510498046875 115.9999313354492 466.6190185546875 C 115.9999313354492 273.2869873046875 273.2869873046875 115.9999313354492 466.6190185546875 115.9999313354492 C 659.9510498046875 115.9999313354492 817.2380981445312 273.2869873046875 817.2380981445312 466.6190185546875 C 817.2380981445312 659.9510498046875 659.9510498046875 817.2380981445312 466.6190185546875 817.2380981445312 Z" stroke="none"/>
      <path d="M 466.6190185546875 232.0000610351562 C 337.249755859375 232.0000610351562 232.0000610351562 337.249755859375 232.0000610351562 466.6190185546875 C 232.0000610351562 595.98828125 337.249755859375 701.2379150390625 466.6190185546875 701.2379150390625 C 595.98828125 701.2379150390625 701.2379150390625 595.98828125 701.2379150390625 466.6190185546875 C 701.2379150390625 337.249755859375 595.98828125 232.0000610351562 466.6190185546875 232.0000610351562 M 466.6190185546875 6.103515625e-05 C 724.325439453125 6.103515625e-05 933.2379760742188 208.91259765625 933.2379760742188 466.6190185546875 C 933.2379760742188 724.325439453125 724.325439453125 933.2379760742188 466.6190185546875 933.2379760742188 C 208.91259765625 933.2379760742188 6.103515625e-05 724.325439453125 6.103515625e-05 466.6190185546875 C 6.103515625e-05 208.91259765625 208.91259765625 6.103515625e-05 466.6190185546875 6.103515625e-05 Z" stroke="none" fill="#0f2b65"/>
    </g>
  </g>
</svg>
