<?xml version="1.0" encoding="utf-8"?>
<!-- Generator: Adobe Illustrator 23.0.5, SVG Export Plug-In . SVG Version: 6.00 Build 0)  -->
<svg version="1.1" id="Layer_1" xmlns="http://www.w3.org/2000/svg" xmlns:xlink="http://www.w3.org/1999/xlink" x="0px" y="0px"
	 viewBox="0 0 577.3 630.3" style="enable-background:new 0 0 577.3 630.3;" xml:space="preserve">
<style type="text/css">
	.st0{opacity:0.36;fill:#DADEEA;}
	.st1{opacity:0.36;fill:#7DBBF1;}
	.st2{fill:#48BE97;}
	.st3{fill:#36A871;}
	.st4{fill:#FFFFFF;}
	.st5{fill:#65A4DA;}
	.st6{fill:#7DBBF1;}
	.st7{fill:#0A1930;}
	.st8{fill:#F4A484;}
	.st9{fill:#E08D68;}
	.st10{fill:#24292D;}
	.st11{fill:#FE5456;}
	.st12{opacity:0.36;fill:#FE5456;}
	.st13{fill:#021946;}
	.st14{opacity:0.36;fill:#021946;}
	.st15{fill:#E5744C;}
	.st16{fill:#1B84C1;}
	.st17{opacity:0.36;fill:#1B84C1;}
	.st18{fill:#DADEEA;}
</style>
<g>
	<circle class="st0" cx="240.1" cy="225.5" r="203.8"/>
	<ellipse class="st1" cx="296.8" cy="589.9" rx="280.5" ry="18.7"/>
	<g>
		<path class="st2" d="M210.9,409.5c0,0-0.8-16.2-23.7-24.8C187.2,384.7,190.8,406.5,210.9,409.5z"/>
		<path class="st2" d="M209.1,438.1c0,0-2.4-20.9-32.7-30.1C176.3,408,182.8,435.9,209.1,438.1z"/>
		<path class="st2" d="M216.6,479.4c0,0-3.4-24.2-39-33.9C177.6,445.5,186,477.8,216.6,479.4z"/>
		<path class="st2" d="M241.5,522.8c0,0-13.5-26.1-57.8-23.1C183.7,499.7,206,533.1,241.5,522.8z"/>
		<path class="st2" d="M210.8,409.8c0,0,3.1-15.9,27-21.1C237.9,388.7,231.2,409.8,210.8,409.8z"/>
		<path class="st2" d="M208.5,438.3c0,0,5.4-20.3,36.7-25C245.2,413.3,234.8,440.1,208.5,438.3z"/>
		<path class="st2" d="M216.1,479.2c0,0-3-24.3,28.7-43C244.8,436.2,245.2,469.6,216.1,479.2z"/>
		<path class="st2" d="M239.5,523.1c0,0-11.9-26.9,18.3-59.5C257.9,463.6,269.9,501.9,239.5,523.1z"/>
		<path class="st2" d="M291.3,569.8c-0.2,0-0.4-0.1-0.5-0.2c-53.2-34.6-72.3-76.5-78.9-105.5c-7.2-31.5-1.7-55.2-1.6-55.4
			c0.1-0.5,0.7-0.9,1.2-0.7c0.5,0.1,0.9,0.7,0.7,1.2c-0.1,0.2-5.5,23.5,1.6,54.6c6.6,28.7,25.4,70,78,104.2c0.5,0.3,0.6,0.9,0.3,1.4
			C291.9,569.7,291.6,569.8,291.3,569.8z"/>
	</g>
	<g>
		<path class="st2" d="M380,439.4c0,0,3-15.9,26.9-21.3C406.9,418.1,400.4,439.3,380,439.4z"/>
		<path class="st2" d="M377.3,468.2c0,0,5.2-20.3,36.6-25.3C413.9,443,403.6,469.8,377.3,468.2z"/>
		<path class="st2" d="M364.9,507.2c0,0,12.6-20.9,49.2-16.1C414.1,491.1,393.8,517.6,364.9,507.2z"/>
		<path class="st2" d="M335.3,547.4c0,0,21.4-20.2,62.2-2.7C397.5,544.6,365.4,568.8,335.3,547.4z"/>
		<path class="st2" d="M380,439.7c0,0-0.9-16.2-23.8-24.6C356.2,415.1,359.9,436.9,380,439.7z"/>
		<path class="st2" d="M377.3,468.1c0,0-2.5-20.8-32.9-29.9C344.4,438.3,351,466.2,377.3,468.1z"/>
		<path class="st2" d="M365.2,507.8c0,0,6.4-23.6-22.5-46.6C342.7,461.2,337.7,494.2,365.2,507.8z"/>
		<path class="st2" d="M335.9,547.9c0,0,15.5-25-9.9-61.5C326,486.4,308.8,522.8,335.9,547.9z"/>
		<path class="st2" d="M321.7,559.5c-0.3,0-0.6-0.2-0.8-0.4c-0.3-0.5-0.2-1.1,0.3-1.4c31.4-21.1,45.4-52.3,51.6-74.7
			c6.7-24.3,6-43.8,6-44c0-0.6,0.4-1,1-1c0.6,0,1,0.4,1,1c0,0.2,0.7,20-6.1,44.6c-6.3,22.7-20.5,54.4-52.4,75.8
			C322.1,559.4,321.9,559.5,321.7,559.5z"/>
	</g>
	<g>
		<path class="st3" d="M86.5,589.9c6.9-15,19.2-59,0.3-68.2c-11.9-5.8-15.4,4.1-15.4,4.1s8.6-48.2-11.8-48.3
			c-11.9-0.1-13.9,13.6-13.9,13.6s-6.5-15.1-14.4-19.4c-17.2-9.5-37.6,0.3-21.8,27.2c4.3,7.3,10.3,12.5,10.3,12.5
			s-17.9-6.8-19.7,6.1c-1.8,12.8,32.2,33.2,32.2,33.2s-10.2,0.4-10.6,12.1c-0.5,15.9,32.2,27.1,32.2,27.1H86.5z"/>
		<path class="st4" d="M77.1,587c-0.2,0-0.3-0.1-0.4-0.3c-11.2-45.9-24.5-62.7-39.8-82.2c-5-6.4-10.2-12.9-15.6-20.9
			c-0.1-0.2-0.1-0.4,0.1-0.6s0.4-0.1,0.6,0.1c5.4,8,10.6,14.5,15.6,20.9c15.4,19.5,28.7,36.4,39.9,82.5
			C77.5,586.7,77.4,587,77.1,587C77.1,587,77.1,587,77.1,587z"/>
	</g>
	<g>
		<path class="st2" d="M101.6,589.9c-0.7-22.3,32.2-68.6,12.2-79.9c-12.5-7-16,5.7-16,5.7S126,468,99,464.8
			c-9.4-1.1-14.8,12.6-14.8,12.6s-0.2-24.6-7.7-33.8c-12.3-15-38-6.6-31.9,25.8c3.3,17.8,15.5,24.8,15.5,24.8s-12.3-9.4-18.2,2.9
			c-7.9,16.6,18.6,38,18.6,38s-11.8-8.8-19.6,5.6c-10.6,19.4,29.6,49.3,29.6,49.3H101.6z"/>
		<path class="st4" d="M92.1,586.5c-0.2,0-0.4-0.2-0.4-0.4c-3.5-48.1-12.1-88.8-26.2-124.6c-0.1-0.2,0-0.4,0.2-0.5
			c0.2-0.1,0.4,0,0.5,0.2C80.4,497.1,89,538,92.5,586.1C92.5,586.3,92.4,586.5,92.1,586.5C92.1,586.5,92.1,586.5,92.1,586.5z"/>
	</g>
	<g>
		<path class="st3" d="M497.6,589.9c4.9-18.1-18.7-53.8-0.4-62.9c11.5-5.7,17.7,0.1,17.7,0.1s-13.5-36,8.9-38.6
			c7.8-0.9,10.2,6.1,10.2,6.1s3.1-10.7,11.5-17.3c15.9-12.7,36.7-8,25.5,18.3c-6.1,14.4-11,16.5-11,16.5s11.1-2.1,13.5,7.9
			c3.2,13.5-23.3,36-23.3,36s9.5,0.9,10.8,8c2.8,15.8-30.6,25.9-30.6,25.9H497.6z"/>
		<path class="st4" d="M516.8,584.6c-0.1,0-0.1,0-0.2,0c-0.2-0.1-0.2-0.3-0.2-0.5c5.5-10.4,9.2-23.4,13-37.1
			c7.1-25.2,14.4-51.3,34.1-67.3c0.2-0.1,0.4-0.1,0.5,0.1c0.1,0.2,0.1,0.4-0.1,0.5c-19.5,15.9-26.8,41.8-33.9,66.9
			c-3.9,13.8-7.6,26.8-13.1,37.3C517,584.5,516.9,584.6,516.8,584.6z"/>
	</g>
	<g>
		<path class="st2" d="M483.8,589.9c-11-18.2-35.1-71.5-17.5-82.6c11-7,17.2,5,17.2,5s-21.2-58.3,0.2-58.4c12.5-0.1,18,16.5,18,16.5
			s4.2-17.1,10.2-27.4c13.6-23.7,45.6-14.2,34.4,23.3c-2.9,9.5-11.5,21.6-11.5,21.6s19.9-1.2,19.3,16c-0.5,16.3-28,31.7-28,31.7
			s18.3-4.1,21.7,10.1c4.6,19.2-35.9,44.3-35.9,44.3H483.8z"/>
		<path class="st4" d="M492.9,586.3C492.9,586.3,492.9,586.3,492.9,586.3c-0.2,0-0.4-0.2-0.4-0.4c0.2-48.2,9.8-68,21-91
			c5.9-12.1,12-24.7,17.3-42.7c0.1-0.2,0.3-0.3,0.5-0.2c0.2,0.1,0.3,0.3,0.2,0.5c-5.3,18.1-11.4,30.7-17.4,42.8
			c-11.1,22.8-20.7,42.6-20.9,90.6C493.2,586.1,493.1,586.3,492.9,586.3z"/>
	</g>
	<g>
		<path class="st3" d="M297,454.6c0,0,1.2-11,17.3-15.9C314.3,438.6,310.9,453.4,297,454.6z"/>
		<path class="st3" d="M297,474.2c0,0,2.5-14.2,23.7-19.2C320.7,455,315.1,473.9,297,474.2z"/>
		<path class="st3" d="M289.9,502.2c0,0,3.4-16.4,28.2-21.5C318.2,480.7,311,502.5,289.9,502.2z"/>
		<path class="st3" d="M271,530.9c0,0,10.4-17.3,40.6-13.3C311.6,517.5,294.9,539.5,271,530.9z"/>
		<path class="st3" d="M297,454.8c0,0-1.5-11-17.6-15.6C279.4,439.1,283,453.9,297,454.8z"/>
		<path class="st3" d="M297.3,474.4c0,0-2.8-14.1-24.1-18.7C273.3,455.7,279.2,474.5,297.3,474.4z"/>
		<path class="st3" d="M290.3,502.1c0,0,3.1-16.5-17.8-30.7C272.5,471.4,270.8,494.3,290.3,502.1z"/>
		<path class="st3" d="M272.3,531.1c0,0,9.3-17.9-9.9-41.6C262.4,489.6,252.5,515.3,272.3,531.1z"/>
		<path class="st3" d="M234.9,560.9c-0.2,0-0.5-0.1-0.6-0.4c-0.2-0.3-0.1-0.8,0.3-0.9c37.6-21.1,52.3-48.7,58-68
			c6.2-21,3.5-37.1,3.5-37.3c-0.1-0.4,0.2-0.7,0.6-0.8c0.4-0.1,0.7,0.2,0.8,0.6c0,0.2,2.8,16.6-3.5,37.9
			c-5.8,19.6-20.7,47.5-58.7,68.8C235.1,560.9,235,560.9,234.9,560.9z"/>
	</g>
	<g>
		<path class="st5" d="M298.7,589.9c-18.7,0-17.7,0-21.1,0c-14.7,0-37.5-41.1-37.5-57.1c0-15.8,22.8-57.9,37.5-57.9
			c7.2,0,2.4,0,21.1,0c18.7,0,33.5,5.8,43.9,17.3c10,11,15.1,24.7,15.1,40.6c0,16-5.1,29.6-15.3,40.4
			C332,584.3,317.3,589.9,298.7,589.9z M242.8,425.3l0.3-16.5c0.6-28.5,4.4-50.8,11.8-68c7.5-17.4,21.7-35.8,43.6-56l0.3-0.3
			l50.7-44.3c18.5-17.8,27.5-35.8,27.5-55.3c0-18.5-5.3-32.3-16.2-42.3c-11.1-10.2-28.4-15.4-51.4-15.4c-22.8,0-41.1,4.9-54.3,14.7
			c-12,8.9-17.6,19.9-17.6,34.9V193H133.1l0.2-16.4c0.6-40.8,17.9-74.2,51.5-99.1C217,53.5,259,41.4,309.6,41.4
			c52.7,0,94.7,12.5,124.9,37.1c31.2,25.4,47.1,60.6,47.1,104.4c0,43.1-23.1,85.5-68.5,125.9l-0.3,0.3l-42.1,35.3
			c-15.5,14.7-23,35.9-23,64.7v16.2H242.8z"/>
		<path class="st6" d="M277.6,589.9c-18.7,0-33.3-5.7-43.6-16.8c-10-10.8-15-24.3-15-40.3c0-15.8,5-29.5,14.8-40.5
			c10.3-11.5,25.1-17.4,43.8-17.4c18.7,0,33.5,5.8,43.9,17.3c10,11,15.1,24.7,15.1,40.6c0,16-5.1,29.6-15.3,40.4
			C310.9,584.3,296.2,589.9,277.6,589.9z M221.7,425.3l0.3-16.5c0.6-28.5,4.4-50.8,11.8-68c7.5-17.4,21.7-35.8,43.6-56l0.3-0.3
			l50.7-44.3c18.5-17.8,27.5-35.8,27.5-55.3c0-18.5-5.3-32.3-16.2-42.3c-11.1-10.2-28.4-15.4-51.4-15.4c-22.8,0-41.1,4.9-54.3,14.7
			c-12,8.9-17.6,19.9-17.6,34.9V193H112l0.2-16.4c0.6-40.8,17.9-74.2,51.5-99.1c32.2-23.9,74.2-36.1,124.8-36.1
			c52.7,0,94.7,12.5,124.9,37.1c31.2,25.4,47.1,60.6,47.1,104.4c0,43.1-23.1,85.5-68.5,125.9l-0.3,0.3l-42.1,35.3
			c-15.5,14.7-23,35.9-23,64.7v16.2H221.7z"/>
	</g>
	<g>
		<g>
			<path class="st7" d="M143.8,567.5c0.5,6.8-1.7,22,0.1,22.4h50.4c0,0,0.5-7.7-5.5-9.3c-8-2.2-17.7-3.9-21.3-7
				c-1.8-1.6-2.7-6-2.7-6H143.8z"/>
			<path class="st6" d="M171.7,581.9c-0.1,0-0.2,0-0.2-0.1c-0.2-0.1-0.3-0.4-0.1-0.6c2.4-3.8,8.8-3.3,9.1-3.3c0.2,0,0.4,0.2,0.4,0.5
				c0,0.2-0.2,0.4-0.5,0.4c-0.1,0-6.2-0.5-8.3,2.9C171.9,581.9,171.8,581.9,171.7,581.9z"/>
			<path class="st6" d="M165.9,580.2c-0.1,0-0.2,0-0.2-0.1c-0.2-0.1-0.3-0.4-0.1-0.6c2.4-3.8,8.8-3.3,9.1-3.3c0.2,0,0.4,0.2,0.4,0.5
				c0,0.2-0.2,0.4-0.5,0.4c-0.1,0-6.2-0.5-8.3,2.9C166.2,580.2,166,580.2,165.9,580.2z"/>
		</g>
		<g>
			<path class="st7" d="M114.4,567.5c-0.6,9.8,1.1,21.6-1.7,22.4H79.2c0,0-0.5-5.5,4-10c1.8-1.9,6.1-4,8.1-6
				c1.8-1.8,2.1-6.4,2.1-6.4H114.4z"/>
			<path class="st6" d="M94.3,580.1c-0.1,0-0.2-0.1-0.3-0.1c-0.2-0.2-4.1-4.7-9.1-0.9c-0.2,0.1-0.5,0.1-0.6-0.1
				c-0.1-0.2-0.1-0.5,0.1-0.6c5.6-4.3,10.2,1,10.2,1c0.2,0.2,0.1,0.4,0,0.6C94.5,580.1,94.4,580.1,94.3,580.1z"/>
			<path class="st6" d="M99.5,577.5c-0.1,0-0.2,0-0.3-0.1c-0.1-0.1-6.2-5-10.8-1.2c-0.2,0.2-0.4,0.1-0.6-0.1
				c-0.2-0.2-0.1-0.4,0.1-0.6c5.1-4.3,11.8,1.1,11.9,1.2c0.2,0.1,0.2,0.4,0.1,0.6C99.8,577.5,99.7,577.5,99.5,577.5z"/>
		</g>
		<g>
			<path class="st8" d="M180.3,295.2c1.5,9,1,18.7,1.4,18.2c1.2-1.3,15.5-8.3,16.7-8.9c5.2-2.7,9.4-2.5,12.3-2.4
				c1,0,3.8-0.2,3.8-0.2s2.3-0.5,3.9,0.2c1.6,0.7,2.1,2,0.6,2.5c-1.3,0.4-3.8,0.8-3.8,0.8s5.1-0.1,9.2-0.4c1.5-0.1,1.7,1.9,1.7,1.9
				s0.6-0.1,1-0.2c2.1-0.5,2.9,2.6,2,2.9c-1.4,0.4-2.3,0.5-2.3,0.5c0.5,0.2,1.4,1.6,0.1,2c-1.4,0.4-5.2,1.2-5.2,1.2
				c0.9,0,1.6,1.7,1.1,1.9c-2.1,0.8-9.2,2.5-10.2,2.6c-0.9,0.1-5.5,0-7.6-0.3c-1.6-0.2-5.1-1-5.1-1s-23.2,18.9-26.7,18.1
				c-2.6-0.6-7.5-3.7-8.3-8.3c-0.8-4.6-6.3-31.7-6.3-31.7C160.8,280.9,178.1,281.5,180.3,295.2z"/>
			<path class="st9" d="M199.5,316.3c-0.1,0-0.2,0-0.2-0.1c-1.5-2.1-1.4-6.4-1.4-6.6c0-0.2,0.1-0.3,0.3-0.3c0.2,0,0.3,0.1,0.3,0.3
				c0,0-0.1,4.4,1.3,6.3c0.1,0.1,0.1,0.3-0.1,0.4C199.6,316.3,199.6,316.3,199.5,316.3z"/>
			<path class="st9" d="M211.2,315.9c-0.1,0-0.2,0-0.2-0.1c0-0.1-3.4-5.4-8.6-6.4c-0.1,0-0.2-0.2-0.2-0.3c0-0.1,0.1-0.3,0.3-0.2
				c6.9,0.5,9.1-3.1,9.2-3.2c0.1-0.1,0.3-0.2,0.4-0.1c0.1,0.1,0.2,0.3,0.1,0.4c-0.1,0.1-2,3.2-7.6,3.5c4.3,1.7,6.9,5.8,7,6
				c0.1,0.1,0,0.3-0.1,0.4C211.3,315.9,211.2,315.9,211.2,315.9z"/>
			<path class="st9" d="M213.4,314.7c-0.1,0-0.3-0.1-0.3-0.2c0-0.2,0.1-0.3,0.2-0.3l7.8-1.1c0.2,0,0.3,0.1,0.3,0.2
				c0,0.2-0.1,0.3-0.2,0.3L213.4,314.7C213.5,314.7,213.4,314.7,213.4,314.7z"/>
			<path class="st9" d="M213.9,311.6c-0.1,0-0.3-0.1-0.3-0.3c0-0.2,0.1-0.3,0.2-0.3l11.7-1.4c0.1,0,0.3,0.1,0.3,0.2
				s-0.1,0.3-0.2,0.3L213.9,311.6C213.9,311.6,213.9,311.6,213.9,311.6z"/>
			<path class="st9" d="M214.5,308.1c-0.1,0-0.3-0.1-0.3-0.3c0-0.2,0.1-0.3,0.3-0.3l10.6-1c0.2,0,0.3,0.1,0.3,0.3s-0.1,0.3-0.3,0.3
				L214.5,308.1C214.5,308.1,214.5,308.1,214.5,308.1z"/>
		</g>
		<path class="st10" d="M158.7,198.8c0,0,2.2,2.2,2.7,7.2c0.5,5-3.4,11.6-3.4,11.6L158.7,198.8z"/>
		<path class="st11" d="M173.3,362.3c1.6,15.4-7.2,207.2-7.2,207.2h-22.4c0,0-7-136.4-6.1-156.4c0.9-19.9-3.4-38.8-2.1-50.9
			C136.8,350.2,170.6,336.3,173.3,362.3z"/>
		<path class="st11" d="M143.3,362.9c0,69.3-28.1,206.7-28.1,206.7H92.1c0,0,11.7-156.2,12.1-176.2c0.3-14.3,1.9-24.3,3.3-36.5
			C109.9,336.4,143.3,336.8,143.3,362.9z"/>
		<path class="st12" d="M173.5,376.8c-1-0.6-2.2-1.2-3.4-2c-3.3-2-4.3-1.6-27-0.2c-0.3,0-0.6,0-0.9,0c-2.2,0.1-4.4,0.1-6.6,0.1
			c-14.3-0.6-26-5.6-29.4-7.2c0.4-3.5,0.9-7,1.3-10.7c2.1-17.7,27.2-19.8,34.1-3.3c10.2-7.8,29.7-10.8,31.7,8.7
			C173.5,364.4,173.5,369.5,173.5,376.8z"/>
		<path class="st13" d="M166.3,252c16.5,15.4,15.5,56.5,15.5,56.5s-15.2,10.1-24.2,6.1c0,0-6.8-42.1-3.2-55.1
			C156.6,251.6,163.2,249.1,166.3,252z"/>
		<path class="st14" d="M177.7,291c-0.2,7.9-0.2,15.3-0.6,20.2c-5.2,2.7-13.6,6-19.4,3.4c0,0-6.8-42.1-3.2-55.1
			c1-3.5,2.8-5.9,4.7-7.3l7.1-0.3c0,0,0,0,0,0C167.1,252.9,178.5,262.2,177.7,291z"/>
		<path class="st13" d="M124.1,245.8c0,0-24.1,4-24.9,8.4c-0.7,4.4,8.4,67.9,8.4,82.8c0,14.9-1.7,29-1.7,29s19.3,5.4,37.8,5.1
			c18.5-0.3,30.2-3.1,30.2-3.1s-1.1-18.3-1.4-30.5c-0.4-12.2,2.5-47.7,2.5-60.8c0-11.3-5.3-20.6-8.8-24.6
			c-2.9-3.3-17.9-6.8-17.9-6.8L124.1,245.8z"/>
		<path class="st14" d="M112.6,332c-2.1,3.7-3.7,6.9-5,9.5c0-1.5,0.1-3,0.1-4.5c0-9.9-4.1-41.3-6.6-62.5l18.7-10.8
			C122,270.9,122,314.8,112.6,332z"/>
		<path class="st9" d="M126.3,236.9l-2.2,9c0,0,9.5,15.8,20.7,14.2c11.2-1.6,3.6-14.9,3.6-14.9l0.4-5.9L128.1,227L126.3,236.9z"/>
		<path class="st8" d="M159.8,203c0.6,3,0.3,12.7-0.2,20.1c-0.6,7.2-2.5,17.7-6.6,18.6c-4.1,0.9-21.8-2.5-22.6-12.6
			c-3-2.4-14.4-16.4-10.4-23.3C127.1,193.6,158,193.5,159.8,203z"/>
		<ellipse class="st10" cx="145.4" cy="218.3" rx="1.2" ry="1.8"/>
		<path class="st10" d="M157.6,217.7c0,1-0.5,1.8-1.2,1.8c-0.7,0-1.2-0.8-1.2-1.8c0-1,0.5-1.8,1.2-1.8
			C157.1,215.9,157.6,216.7,157.6,217.7z"/>
		<path class="st10" d="M147.5,213.8c-0.6-0.2-1.1-0.4-1.7-0.5c-0.6-0.1-1.1-0.1-1.6,0c-0.5,0.1-1.1,0.2-1.5,0.5
			c-0.5,0.3-0.9,0.6-1.4,1c0.3-0.5,0.6-1.1,1.1-1.4c0.5-0.4,1.1-0.6,1.7-0.7C145.3,212.5,146.6,213,147.5,213.8z"/>
		<path class="st10" d="M152.9,213.3c0.9-0.8,2.1-1.3,3.4-1.1c0.6,0.1,1.2,0.3,1.7,0.7c0.5,0.4,0.9,0.9,1.1,1.4
			c-0.5-0.4-0.9-0.8-1.4-1c-0.5-0.3-1-0.5-1.5-0.5c-0.5-0.1-1.1,0-1.6,0C154,212.9,153.5,213.1,152.9,213.3z"/>
		<path class="st15" d="M152,220.4c0.2,1.1,0.7,2,1.2,3l1.6,2.9c0.3,0.5,0.5,1,0.7,1.5c0.1,0.3,0.2,0.5,0.2,0.9c0,0.1,0,0.2-0.1,0.3
			c0,0.1-0.1,0.2-0.2,0.3c-0.1,0.1-0.2,0.3-0.4,0.3c-0.5,0.3-1.1,0.5-1.6,0.6c-0.5,0.1-1.1,0.2-1.6,0.2l0-0.1c1-0.4,2.1-0.8,2.8-1.4
			c0.2-0.2,0.3-0.3,0.3-0.4c0-0.2-0.1-0.4-0.2-0.7c-0.2-0.5-0.4-1-0.6-1.5l-1.4-3C152.5,222.6,152,221.6,152,220.4L152,220.4z"/>
		<path class="st4" d="M155.9,232.1c0,0-3.3-0.3-6.6,1.3c0,0,5.7,0.8,6.2,0.3C155.9,233.1,155.9,232.1,155.9,232.1z"/>
		<path class="st10" d="M160.4,205.6c-0.9,1.9-7,4.7-18.3,4.1c0,0,5.6-1.5,6.9-6c0,0-4.5,6.9-13.4,6.8c0,0,0.8,6.2-3,12.6
			c0,0-2.5,3.4-2.2,6.1c0.4,2.5-2.3,7.1-4.1,8.1c-1.1-8-9.5-23.7-7.8-32.6c1.7-8.9,9.7-9.1,9.7-9.1c3.7-5.8,17.2-8.2,26.1-3.4
			C160.8,195.8,162,202.1,160.4,205.6z"/>
		<path class="st8" d="M133.5,220.4c-1.9-4.6-8.2-4.3-8.3-0.3c-0.1,6.4,3.8,8.3,5.2,9.2C131.7,230,134.6,223.2,133.5,220.4z"/>
		<g>
			<path class="st8" d="M94.8,295.4c-1.5,9-2.7,17.9-3.1,17.4c-1.2-1.3-22-7-23.3-7.7c-6.1-3.6-10.3-3.1-13-3.1l-3.8-0.2
				c0,0-2.3-0.5-3.9,0.2c-1.6,0.7-2.1,2-0.6,2.5c1.3,0.4,3.8,0.8,3.8,0.8s-5.1-0.1-9.2-0.4c-1.5-0.1-1.7,1.9-1.7,1.9s-0.6-0.1-1-0.2
				c-2.1-0.5-2.9,2.6-2,2.9c1.4,0.4,2.3,0.5,2.3,0.5c-0.5,0.2-1.4,1.6-0.1,2c1.4,0.4,5.2,1.2,5.2,1.2c-0.9,0-1.6,1.7-1.1,1.9
				c2.1,0.8,9.2,2.5,10.2,2.6c0.9,0.1,5.5,0,7.6-0.3c1.6-0.2,5.1-0.4,5.1-0.4s29.5,14.3,33,14.7c3.2,0.4,8.5-0.7,10.2-5.5
				c1.6-4.4,8-31,8-31C115.2,281.6,97,281.7,94.8,295.4z"/>
			<path class="st9" d="M66.5,317.1c-0.1,0-0.1,0-0.2-0.1c-0.1-0.1-0.2-0.3-0.1-0.4c0,0,1.3-1.9,1.7-4.4c0-0.2,0.2-0.3,0.3-0.2
				c0.2,0,0.3,0.2,0.2,0.3c-0.4,2.7-1.7,4.6-1.8,4.7C66.7,317.1,66.6,317.1,66.5,317.1z"/>
			<path class="st9" d="M54.9,315.9c-0.1,0-0.1,0-0.1,0c-0.1-0.1-0.2-0.3-0.1-0.4c0.1-0.2,2.7-4.3,7-6c-5.6-0.3-7.5-3.3-7.6-3.5
				c-0.1-0.1,0-0.3,0.1-0.4c0.1-0.1,0.3,0,0.4,0.1c0,0,2.3,3.7,9.2,3.2c0.2,0,0.3,0.1,0.3,0.2c0,0.1-0.1,0.3-0.2,0.3
				c-5.2,1-8.6,6.3-8.6,6.4C55.1,315.9,55,315.9,54.9,315.9z"/>
			<path class="st9" d="M52.6,314.7C52.6,314.7,52.6,314.7,52.6,314.7l-7.8-1.1c-0.2,0-0.3-0.2-0.2-0.3c0-0.2,0.2-0.3,0.3-0.2
				l7.8,1.1c0.2,0,0.3,0.2,0.2,0.3C52.9,314.6,52.8,314.7,52.6,314.7z"/>
			<path class="st9" d="M52.2,311.6C52.1,311.6,52.1,311.6,52.2,311.6l-11.7-1.4c-0.2,0-0.3-0.2-0.2-0.3c0-0.2,0.2-0.3,0.3-0.2
				l11.7,1.4c0.2,0,0.3,0.2,0.2,0.3C52.4,311.5,52.3,311.6,52.2,311.6z"/>
			<path class="st9" d="M51.5,308.1C51.5,308.1,51.5,308.1,51.5,308.1l-10.6-1c-0.2,0-0.3-0.2-0.3-0.3c0-0.2,0.2-0.3,0.3-0.3l10.6,1
				c0.2,0,0.3,0.2,0.3,0.3C51.8,308,51.7,308.1,51.5,308.1z"/>
		</g>
		<path class="st13" d="M99.1,254.1c-8,16-8.3,52-8.3,52s15.8,8.2,25.2,4.4c0,0,6.1-34.3,3.7-46.9C118.3,255.9,103,246.3,99.1,254.1
			z"/>
	</g>
	<g>
		<g>
			<path class="st11" d="M437.5,567.5c-0.5,6.8,1.7,22-0.1,22.4h-50.4c0,0-0.5-7.7,5.5-9.3c8-2.2,17.7-3.9,21.3-7
				c1.8-1.6,2.7-6,2.7-6H437.5z"/>
			<path class="st6" d="M409.6,581.9c-0.1,0-0.3-0.1-0.4-0.2c-2.1-3.4-8.2-2.9-8.3-2.9c-0.2,0-0.4-0.2-0.5-0.4
				c0-0.2,0.2-0.4,0.4-0.5c0.3,0,6.7-0.6,9.1,3.3c0.1,0.2,0.1,0.5-0.1,0.6C409.7,581.9,409.6,581.9,409.6,581.9z"/>
			<path class="st6" d="M415.3,580.2c-0.1,0-0.3-0.1-0.4-0.2c-2.1-3.4-8.2-2.9-8.3-2.9c-0.2,0-0.4-0.2-0.5-0.4
				c0-0.2,0.2-0.4,0.4-0.5c0.3,0,6.7-0.6,9.1,3.3c0.1,0.2,0.1,0.5-0.1,0.6C415.5,580.2,415.4,580.2,415.3,580.2z"/>
		</g>
		<g>
			<path class="st11" d="M466.8,567.5c0.6,9.8-1.1,21.6,1.7,22.4H502c0,0,0.5-5.5-4-10c-1.8-1.9-6.1-4-8.1-6
				c-1.8-1.8-2.1-6.4-2.1-6.4H466.8z"/>
			<path class="st6" d="M487,580.1c-0.1,0-0.2,0-0.3-0.1c-0.2-0.2-0.2-0.4,0-0.6c0-0.1,4.6-5.3,10.2-1c0.2,0.1,0.2,0.4,0.1,0.6
				c-0.1,0.2-0.4,0.2-0.6,0.1c-5-3.8-8.9,0.7-9.1,0.9C487.2,580,487.1,580.1,487,580.1z"/>
			<path class="st6" d="M481.7,577.5c-0.1,0-0.2-0.1-0.3-0.2c-0.1-0.2-0.1-0.4,0.1-0.6c0.1-0.1,6.8-5.4,11.9-1.2
				c0.2,0.2,0.2,0.4,0.1,0.6c-0.2,0.2-0.4,0.2-0.6,0.1c-4.6-3.8-10.7,1.1-10.8,1.2C481.9,577.5,481.8,577.5,481.7,577.5z"/>
		</g>
		<path class="st13" d="M406.4,361.7c-1.6,15.4,9.2,207.8,9.2,207.8H438c0,0,7-136.4,6.1-156.4c-0.9-19.9,3.4-38.8,2.1-50.9
			C444.9,350.2,409.1,335.7,406.4,361.7z"/>
		<path class="st13" d="M438.4,362.9c0,69.3,28.1,206.7,28.1,206.7h23.1c0,0-11.7-156.2-12.1-176.2c-0.3-14.3-1.9-24.3-3.3-36.5
			C471.8,336.4,438.4,336.8,438.4,362.9z"/>
		<path class="st14" d="M475.6,368.2c-3.9,1.7-15.4,6.2-29.5,6.3c-1.3,0-2.6,0-4-0.1c-1.2-0.1-2.4-0.1-3.5-0.2
			c-16.9-0.9-26.3-0.5-29.2,0.3c-1.1,0.3-2.2,1.3-3.1,2.4c-0.2-7.7-0.2-13,0-15.1c2.1-19.7,23.1-16.2,33.7-8.1
			c1.7-4.1,4.5-7.1,7.8-9l16-1.2c5.3,2,9.5,6.5,10.3,13.3C474.7,360.8,475.2,364.5,475.6,368.2z"/>
		<path class="st16" d="M416.5,252c-16.5,15.4-15.5,56.5-15.5,56.5s15.2,10.1,24.2,6.1c0,0,6.8-42.1,3.2-55.1
			C426.1,251.6,419.5,249.1,416.5,252z"/>
		<path class="st16" d="M462.5,245.8c0,0,23,7.3,23.7,11.7c0.7,4.4-12,63.8-12,78.7c0,14.9,1.6,29.7,1.6,29.7s-19.3,5.4-37.8,5.1
			c-18.5-0.3-32.3-3.7-32.3-3.7s1-18.2,1.4-30.4c0.4-12.2,0.6-47.3,0.6-60.3c0-11.3,5.3-20.6,8.8-24.6c2.9-3.3,21.8-6.8,21.8-6.8
			L462.5,245.8z"/>
		<path class="st17" d="M474.2,336.2c0,4.1,0.1,8.3,0.3,12.1c-3.7-7.2-10.6-13.9-14.1-15c-4.5-1.4-42.3-16.9-45.2-16.2
			c-1.6,0.3-4.9-0.1-7.7-0.6c0.1-4.4,0.1-8.9,0.1-13.4l19.8-55.4c5.5-1.4,10.9-2.4,10.9-2.4c-1.6,1.3-3.9,8.7-5.5,12.3
			c-1.7,3.7-10.7,42-10.7,42l30.9,3.1c3.9-29.4,12.2-41.3,12.2-41.3l18.4,15.5C479.8,296.7,474.2,326.3,474.2,336.2z"/>
		<path class="st9" d="M460.3,236.9l2.2,9c0,0-9.5,15.8-20.7,14.2c-11.2-1.6-3.6-14.9-3.6-14.9l-0.4-5.9l20.6-12.2L460.3,236.9z"/>
		<path class="st8" d="M427.6,203.1c-0.6,3-1.1,12.6-0.6,20c0.6,7.2,2.5,17.7,6.6,18.6c4.1,0.9,21.8-2.5,22.6-12.6
			c3-2.4,14.4-16.4,10.4-23.3C459.5,193.6,429.4,193.6,427.6,203.1z"/>
		<ellipse class="st10" cx="441.2" cy="218.3" rx="1.2" ry="1.8"/>
		<ellipse class="st10" cx="430.4" cy="217.5" rx="1.2" ry="1.8"/>
		<path class="st10" d="M439,214.5c0.4-0.5,0.9-0.9,1.5-1.2c0.6-0.3,1.2-0.5,1.9-0.4c0.7,0,1.3,0.2,1.9,0.6c0.6,0.3,1,0.8,1.3,1.4
			c-0.6-0.3-1.1-0.6-1.6-0.8c-0.5-0.2-1.1-0.3-1.6-0.3C441.2,213.7,440.1,214,439,214.5z"/>
		<path class="st10" d="M434.5,213.8c-1.1-0.5-2.3-0.9-3.4-0.8c-0.5,0-1.1,0.1-1.6,0.3c-0.5,0.2-1.1,0.5-1.6,0.8
			c0.3-0.5,0.8-1,1.3-1.4c0.6-0.4,1.2-0.5,1.9-0.6c0.7,0,1.3,0.1,1.9,0.4C433.6,212.9,434.1,213.3,434.5,213.8z"/>
		<path class="st9" d="M434.6,220.4c-0.1,1.2-0.5,2.2-0.9,3.3l-1.4,3.1c-0.2,0.5-0.4,1-0.6,1.5c-0.1,0.3-0.2,0.5-0.2,0.7
			c0,0.1,0,0.1,0,0.1c0,0,0,0,0,0.1c0,0.1,0.1,0.1,0.2,0.2c0.7,0.6,1.9,1,2.9,1.5l0,0.1c-0.6,0-1.1-0.1-1.7-0.3
			c-0.6-0.1-1.1-0.3-1.6-0.7c-0.1-0.1-0.3-0.2-0.4-0.4c-0.1-0.1-0.1-0.2-0.1-0.3c0-0.1,0-0.2,0-0.3c0-0.4,0.1-0.6,0.2-0.9
			c0.2-0.5,0.5-1,0.7-1.6l1.6-3C433.9,222.6,434.4,221.5,434.6,220.4L434.6,220.4z"/>
		<path class="st4" d="M430.4,233.4c0,0,3.2-1.2,6.5,0.5c0,0-5.7,0.8-6.2,0.3C430.2,233.6,430.4,233.4,430.4,233.4z"/>
		<path class="st10" d="M426.9,207c0.9,1.9,17.1,1.8,25.9,1.6c0,0-2.6,8.2,1.2,14.5c0,0,2.5,3.4,2.2,6.1c-0.4,2.5,3.8,8.4,4.1,6.4
			c0.8-6.3,9.6-24.4,7.2-33.1c-2-7.3-6.6-7-6.6-7c-3.7-5.8-12.8-2.7-31.1-6.7C422.4,187.2,425.3,203.5,426.9,207z"/>
		<path class="st8" d="M453.1,220.4c1.9-4.6,8.2-4.3,8.3-0.3c0.1,6.4-3.8,8.3-5.2,9.2C454.8,230,452,223.2,453.1,220.4z"/>
		<g>
			<path class="st8" d="M405.5,312.8c2.8,1,3.6,1.2,4.7,1.2c2.8,0.1,4.6-0.1,4.6-0.1s41,14.4,44.9,14.1c2.9-0.2,9.2-2,11.9-6.6
				c2.6-4.4,8.3-22,10.4-29.8c4-14.7-15.6-17-20.8-2.7c-3.4,9.4-4.3,19.2-4.7,18.6c-1-1.6-35.1-5.1-35.8-6.3
				c-1.4-2.4-6.3-3.5-7.6-3.6c-1.5-0.1-2.2-0.3-2.8-0.5c-1.9-0.4-3.5,1.4-1.7,2.2c1.4,0.6,3.9,1.7,3.9,1.7s-8.8-3.1-10.5-3.8
				c-1.7-0.6-3.6,1.8-1.3,3.2c2.3,1.3,2.8,1.5,2.8,1.5s-1.6-1.1-3.1-0.7c-1,0.3-0.4,3.2,0.7,3.5c0.1,0,0.6,0.2,0.6,0.2
				s-2.2,2.2,0.9,3.4c0.3,0.1,0.5,0.2,0.5,0.2s-1.8,1.6-0.4,2.5C404.1,312,405.5,312.8,405.5,312.8z"/>
		</g>
		<g>
			<path class="st8" d="M433.7,251.4c-1,4.2-2.8,3.2-3.3,4.4c-0.6,1.3-11.5,42.7-11.9,44.6c-1.3,6.1-9,10.9-13.5,8.9
				c-4.9-2.2-6.5-9-5.6-12.9c0.9-3.8,20.6-43.8,20.6-43.8s1.5-12.5,2.3-12.9c2.2-1.2,6.2-2.7,6.8-2.8c1.5-0.3,8.4,0,8.4,0
				c0,0-0.1,1.6-1.2,2.3c-0.5,0.3-5.9,0.9-5.9,0.9s5,0.3,5.2,0.8c0.2,0.5,0.8,6.1,0.6,6.8C435.3,249.8,433.8,251,433.7,251.4z"/>
			<path class="st9" d="M425.7,241.4c-0.1,0-0.2-0.1-0.3-0.2c0-0.2,0.1-0.3,0.2-0.3l2.4-0.6c0.2,0,0.3,0.1,0.3,0.2
				c0,0.2-0.1,0.3-0.2,0.3L425.7,241.4C425.8,241.4,425.7,241.4,425.7,241.4z"/>
			<path class="st9" d="M435.4,248c-0.2,0-0.5-0.1-1-0.5c-0.4-0.3-0.6-1.3-0.9-2.7c-0.1-0.4-0.2-0.9-0.3-1.1
				c-0.7-0.1-4.6-0.2-7.1-0.2c-0.2,0-0.3-0.1-0.3-0.3c0-0.2,0.1-0.3,0.3-0.3c0,0,0,0,0,0c7.1,0.1,7.3,0.3,7.4,0.3
				c0.1,0.1,0.2,0.4,0.5,1.4c0.2,0.8,0.5,2.2,0.8,2.4c0.4,0.3,0.6,0.4,0.6,0.4c0.1,0,0.3,0.1,0.3,0.2
				C435.8,247.9,435.7,248,435.4,248C435.5,248,435.5,248,435.4,248z M433.3,243.8L433.3,243.8L433.3,243.8z"/>
			<path class="st9" d="M433.4,250.6C433.3,250.6,433.3,250.6,433.4,250.6c-1,0-1.5-1.5-2-2.6c-0.1-0.3-0.3-0.8-0.4-0.9
				c-0.3-0.1-3.8-0.5-6-0.7c-0.2,0-0.3-0.2-0.3-0.3c0-0.2,0.1-0.3,0.3-0.2c1.4,0.2,5.8,0.7,6.2,0.8c0.2,0.1,0.3,0.4,0.6,1.1
				c0.3,0.8,0.8,2.2,1.4,2.3c0.8,0.1,1.1-1,1.1-1c0-0.2,0.2-0.2,0.3-0.2c0.2,0,0.2,0.2,0.2,0.3C434.8,249.7,434.4,250.6,433.4,250.6
				z"/>
			<path class="st9" d="M430.1,249.9C430.1,249.9,430.1,249.9,430.1,249.9l-4.7-0.7c-0.2,0-0.3-0.2-0.2-0.3c0-0.2,0.2-0.3,0.3-0.2
				l4.7,0.7c0.2,0,0.3,0.2,0.2,0.3C430.4,249.8,430.3,249.9,430.1,249.9z"/>
			<path class="st9" d="M430.4,253.7c-0.8,0-1.6-0.1-1.9-0.1c-0.5-0.1-0.9-1-0.9-1.7c0-0.6,0.4-1,0.9-1.1c0.1,0,0.3,0.1,0.3,0.3
				c0,0.2-0.1,0.3-0.3,0.3c-0.1,0-0.4,0-0.4,0.5c0,0.5,0.3,1.1,0.4,1.1c0.7,0.1,2.5,0.2,2.8,0c0.3-0.2,1.1-1.2,1.1-2
				c0-0.2-0.3-1.2-0.6-2c-0.1-0.1,0-0.3,0.2-0.4c0.2-0.1,0.3,0,0.4,0.2c0.1,0.3,0.7,1.8,0.7,2.3c0,1-0.9,2.2-1.4,2.5
				C431.4,253.6,430.9,253.7,430.4,253.7z"/>
			<path class="st9" d="M426.8,256.2c-0.7,0-1.4-0.1-2.1-0.2c-0.2,0-0.3-0.2-0.2-0.3c0-0.2,0.2-0.3,0.3-0.2c3.7,0.7,6.3-0.8,6.3-0.8
				c0.1-0.1,0.3,0,0.4,0.1c0.1,0.1,0,0.3-0.1,0.4C431.2,255.2,429.5,256.2,426.8,256.2z"/>
			<path class="st9" d="M428.5,257.1c-0.6,0-1.4-0.1-2.4-0.5c-0.1-0.1-0.2-0.2-0.2-0.4c0.1-0.1,0.2-0.2,0.4-0.2
				c2.4,0.9,3.4,0.2,3.4,0.2c0.1-0.1,0.3,0,0.4,0.1c0.1,0.1,0,0.3-0.1,0.4C430,256.8,429.5,257.1,428.5,257.1z"/>
			<path class="st9" d="M435.9,243.8c-0.1,0-0.3-0.1-0.3-0.2c-0.1-0.6-0.3-2.1-0.4-2.5c-0.5-0.2-2.8-0.5-5-0.6
				c-0.1,0-0.3-0.1-0.3-0.3c0-0.1,0.1-0.3,0.2-0.3c0,0,5-0.7,5.9-0.9c0.6-0.1,1-1.3,1.1-1.8c-1.2,0-7.2-0.1-7.4-0.1
				c-0.2,0-0.3-0.1-0.3-0.3c0-0.2,0.1-0.3,0.3-0.3c0,0,0,0,0,0c0.1,0,7.3,0.1,7.6,0.1c0,0,0,0,0,0l0,0c0.1,0,0.3,0.1,0.4,0.4
				c0.1,0.6-0.5,2.3-1.5,2.5c-0.5,0.1-2,0.4-3.4,0.5c2.8,0.3,2.9,0.6,2.9,0.8c0.1,0.4,0.4,2.6,0.4,2.6
				C436.2,243.7,436,243.8,435.9,243.8C435.9,243.8,435.9,243.8,435.9,243.8z M437.4,237.3L437.4,237.3L437.4,237.3L437.4,237.3z"/>
		</g>
		<path class="st16" d="M486.3,257.4c7.5,8.2-9,53-9,53s-12.9-0.9-22.3-4.7c0,0,7.2-39,10-44.5C468.6,254.3,480.4,251,486.3,257.4z"
			/>
		<path class="st9" d="M408.1,310.1c-0.5,0-1.1,0-1.7-0.1c-6-1-7.2-8.6-7.2-8.7c0-0.2,0.1-0.3,0.2-0.3c0.2,0,0.3,0.1,0.3,0.2
			c0,0.1,1.2,7.2,6.8,8.2c7.2,1.2,11-6,11.9-9.9c0-0.2,0.2-0.2,0.3-0.2c0.2,0,0.2,0.2,0.2,0.3C418.1,303.4,414.7,310.1,408.1,310.1z
			"/>
	</g>
	<g>
		
			<ellipse transform="matrix(0.9205 -0.3906 0.3906 0.9205 -39.9931 40.0743)" class="st18" cx="78.5" cy="118.4" rx="52.3" ry="52.3"/>
		<path class="st4" d="M60.7,118.4c0,3.7-3,6.7-6.7,6.7c-3.7,0-6.7-3-6.7-6.7c0-3.7,3-6.7,6.7-6.7C57.7,111.7,60.7,114.7,60.7,118.4
			z"/>
		<path class="st4" d="M85.2,118.4c0,3.7-3,6.7-6.7,6.7s-6.7-3-6.7-6.7c0-3.7,3-6.7,6.7-6.7S85.2,114.7,85.2,118.4z"/>
		<path class="st4" d="M109.6,118.4c0,3.7-3,6.7-6.7,6.7c-3.7,0-6.7-3-6.7-6.7c0-3.7,3-6.7,6.7-6.7
			C106.7,111.7,109.6,114.7,109.6,118.4z"/>
		<path class="st18" d="M76.2,166.7c0,0,5.4,13.2,26.7,13.9c0,0-9.2-6.5-9.2-17.4L76.2,166.7z"/>
	</g>
	<g>
		
			<ellipse transform="matrix(0.9741 -0.2262 0.2262 0.9741 -22.6753 120.9284)" class="st18" cx="516.3" cy="159.4" rx="52.3" ry="52.3"/>
		<path class="st4" d="M534.1,159.4c0,3.7,3,6.7,6.7,6.7c3.7,0,6.7-3,6.7-6.7c0-3.7-3-6.7-6.7-6.7
			C537.1,152.7,534.1,155.7,534.1,159.4z"/>
		<path class="st4" d="M509.6,159.4c0,3.7,3,6.7,6.7,6.7c3.7,0,6.7-3,6.7-6.7c0-3.7-3-6.7-6.7-6.7
			C512.6,152.7,509.6,155.7,509.6,159.4z"/>
		<path class="st4" d="M485.2,159.4c0,3.7,3,6.7,6.7,6.7s6.7-3,6.7-6.7c0-3.7-3-6.7-6.7-6.7S485.2,155.7,485.2,159.4z"/>
		<path class="st18" d="M518.6,207.8c0,0-5.4,13.2-26.7,13.9c0,0,9.2-6.5,9.2-17.4L518.6,207.8z"/>
	</g>
	<g>
		<path class="st2" d="M216.2,589.9c0,0,0.8-20-18.1-34.9c0,0,26.3,2.9,28.5,34.9L216.2,589.9z"/>
		<path class="st3" d="M219,589.9c0,0-2.5-33.1,27.1-40c0,0-17,12-18.7,40H219z"/>
		<path class="st2" d="M219,589.9c0,0,6.7-29.5,34.7-28.5c0,0-21.2,11.9-22.4,28.5H219z"/>
	</g>
	<g>
		<path class="st2" d="M360.9,589.9c0,0-3.8-12.5,12.9-19.3c0,0-18.9-3.6-20.4,19.3L360.9,589.9z"/>
		<path class="st3" d="M358.9,589.9c0,0-3.5-13.9,3.7-31.3c0,0-13.4,6.6-9.7,31.3H358.9z"/>
		<path class="st2" d="M358.9,589.9c0,0-1.1-16-21.1-15.2c0,0,14.3,4.6,12.3,15.2H358.9z"/>
	</g>
</g>
</svg>
