<svg xmlns="http://www.w3.org/2000/svg" width="577.312" height="630.295" viewBox="0 0 577.312 630.295">
  <g id="h-img03" transform="translate(239.662 -62.165)">
    <g id="Group_169" data-name="Group 169" transform="translate(-904.311 -572.969)">
      <g id="Group_159" data-name="Group 159" transform="translate(947.136 948.489)">
        <g id="Group_158" data-name="Group 158">
          <path id="Path_45" data-name="Path 45" d="M1069.591,1087.531s.542,6.833,1.319,9.415c.409,1.358,2.292,6.628,2.292,6.628l-1.883,12.554,9.274,1.09s.224-10.261,1.75-13.04a30.51,30.51,0,0,0,2.449-8.154C1085.1,1091.888,1069.591,1087.531,1069.591,1087.531Z" transform="translate(-1060.835 -1075.512)" fill="#f7a491"/>
          <path id="Path_46" data-name="Path 46" d="M1226.656,1075.052s-10.423,6.728-12.424,8.552c-1.052.958-5.391,4.526-5.391,4.526l-6.63,11.967-8.841-5.373s7.189-7.565,7.314-10.729a30.557,30.557,0,0,1,2.112-8.25C1204.674,1072.037,1226.656,1075.052,1226.656,1075.052Z" transform="translate(-1095.59 -1071.683)" fill="#f7a491"/>
          <path id="Path_47" data-name="Path 47" d="M1127.721,1133.529s6.844-3.623,8.789,4.193a4.307,4.307,0,0,1,4.905,3.146s6.254.191,4.838,9.079c0,0,3.109.424,2.352,4a8.927,8.927,0,0,1-3.288,5.289s1.24,1.767-.559,4.69a4.157,4.157,0,0,1-3.917,2.149s-2.115,4.341-4.558,5.05a6.891,6.891,0,0,1-4.933-.846s-1.536,2.225-3.782,1.236-4.394-4.132-7.318-4.008-9.319-3.153-9.319-3.153-6.461-5.849-1.653-12.76c0,0-2.8-4.878,2.1-7.992,0,0-.326-7.521,6.01-9.794S1127.721,1133.529,1127.721,1133.529Z" transform="translate(-1071.479 -1088.192)" fill="#1f0b38"/>
          <path id="Path_48" data-name="Path 48" d="M1206.8,1407.3s9.232-1.045,10.762-1.789,9.28,6.589,7.743,10.267c-.866,2.073-3.6,1.809-3.6,1.809l-2.213-2.142-11.715,2.42Z" transform="translate(-1099.36 -1164.78)" fill="#f7a491"/>
          <path id="Path_49" data-name="Path 49" d="M1129.925,1461.616s4.862,7.846,6.19,8.9-2.1,11.118-6.113,11.295c-2.263.1-3.179-2.471-3.179-2.471l1.022-2.893-7.17-9.493Z" transform="translate(-1075.178 -1180.547)" fill="#f7a491"/>
          <path id="Path_50" data-name="Path 50" d="M1135.541,1473.567a61.131,61.131,0,0,1-4.317,4.933,51.256,51.256,0,0,1-4.486,3.585s-2.853,5.131-3.633,6.922c-1.736,3.985-3.687,8.426-3.405,10.658.091.716,1.715,1.474,3.068,1.062,5.636-1.716,20.044-14.774,21.864-18.28C1146.729,1478.4,1135.541,1473.567,1135.541,1473.567Z" transform="translate(-1074.897 -1183.903)" fill="#1f0b38"/>
          <path id="Path_51" data-name="Path 51" d="M1082.358,1305.833c.524-1.451,1.025-2.793,1.51-4.056,5.993,1.3,12.763,2.722,19.728,4.192l.848,25.29c0-1.953-5.235,40.335-5.235,40.335s14.226,27.994,23.481,45.3c-3.8,4.7-6.717,6.751-12.218,9.952-14.367-17.064-32.727-47.139-33.508-52.333C1076.515,1371.521,1076.11,1323.247,1082.358,1305.833Z" transform="translate(-1062.842 -1135.668)" fill="#fe7893"/>
          <path id="Path_52" data-name="Path 52" d="M1146.339,1314.783c-1.629,17.53-4.323,44.068-4.815,53,11.44,1.634,38.468,9.688,43.508,9.679,1.906,4.235,2.963,9.372,1.64,13.594-.262.834-53.319,2.508-67.014-6.151-3.572-2.258-4.673-26.472-4.728-52.008l-.848-25.289C1125.684,1310.056,1136.352,1312.458,1146.339,1314.783Z" transform="translate(-1073.327 -1137.304)" fill="#fea3b5"/>
          <path id="Path_53" data-name="Path 53" d="M1098.34,1192.692l13.019,1.944s9.814.151,12.434.176c.227,0,10.441,49.364,12.924,67.94s.559,21.866.559,21.866-17.317,3.859-30.128,2.734c-13.322-1.17-28.311-8.3-28.311-8.3s12.235-36.2,14.493-47.351S1098.34,1192.692,1098.34,1192.692Z" transform="translate(-1063.431 -1105.039)" fill="#fdeded"/>
          <path id="Path_54" data-name="Path 54" d="M1067.406,1116.1s-11.27,39.743-9.869,42.557c2.038,4.1,27.166,25.123,27.166,25.123s-10.955,45.422-15.561,61.109c-.464,1.58-2.517,11.784-2.517,12.778,0,2.206,9.692,5.006,10.842,4.84,1.031-.149,9.486-43.356,14.885-64.5a60.232,60.232,0,0,1,9.261-19.978l3.755-5.285-31.591-19.572s5.555-34.292,5.555-36.93C1079.332,1115.551,1068.8,1113.505,1067.406,1116.1Z" transform="translate(-1057.416 -1083.175)" fill="#7c35c3"/>
          <path id="Path_55" data-name="Path 55" d="M1137.276,1168.263l27.656-23.493s9.109-44.813,9.465-46.105c.349-1.269,11.725.182,15.32-.165,1.154-.111-9.144,50.079-12.007,55.779-2.149,4.276-17.776,22.747-17.776,22.747s-7.519,17-6.346,30.133c1.948,21.816,5.811,53.254,4.871,54.195-5.839,3.644-24.213,3.513-25.632,1.249C1117.164,1237.611,1137.276,1168.263,1137.276,1168.263Z" transform="translate(-1076.914 -1078.489)" fill="#7c35c3"/>
          <path id="Path_56" data-name="Path 56" d="M1124.617,1181.749l-.969,7.125s-2.172,10.265.622,12.244,11.881-12.537,11.881-12.537l-.96-18.055Z" transform="translate(-1075.787 -1098.815)" fill="#f7a491"/>
          <path id="Path_57" data-name="Path 57" d="M1135.871,1176.378c-2.307,6.158-7.8,9.943-11.705,11.412l.822-6.041,10.573-11.223Z" transform="translate(-1076.158 -1098.815)" fill="#f47458"/>
          <path id="Path_58" data-name="Path 58" d="M1157.93,1151.521c0,2.75-1.579,4.98-3.526,4.98s-3.526-2.23-3.526-4.98,1.578-4.979,3.526-4.979S1157.93,1148.772,1157.93,1151.521Z" transform="translate(-1083.659 -1092.081)" fill="#1f0b38"/>
          <path id="Path_59" data-name="Path 59" d="M1142.628,1137.469c0,1.58-1.92,2.861-4.29,2.861s-4.289-1.281-4.289-2.861,1.92-2.862,4.289-2.862S1142.628,1135.888,1142.628,1137.469Z" transform="translate(-1078.933 -1088.73)" fill="#1f0b38"/>
          <path id="Path_60" data-name="Path 60" d="M1131.278,1145.573a9.614,9.614,0,0,0-14.328,3.241,71.391,71.391,0,0,0-3.618,8.431c-2.765,7.851-1.189,16.907,2.431,18.109s15.323-.593,19.405-11.686C1137.688,1156.818,1136.287,1149.372,1131.278,1145.573Z" transform="translate(-1072.722 -1091.263)" fill="#f7a491"/>
          <path id="Path_61" data-name="Path 61" d="M1140.045,1170.553a2.794,2.794,0,1,0,3.651-2.292A3.076,3.076,0,0,0,1140.045,1170.553Z" transform="translate(-1080.559 -1098.147)" fill="#f7a491"/>
          <path id="Path_62" data-name="Path 62" d="M1116.286,1133.34c-4.713,1.694-7.5,5.719-6.231,8.99s6.123,4.548,10.836,2.854,7.5-5.719,6.231-8.99S1121,1131.646,1116.286,1133.34Z" transform="translate(-1072.11 -1088.164)" fill="#1f0b38"/>
          <path id="Path_63" data-name="Path 63" d="M1131.289,1140.93c-.423,1.276.789,2.825,2.706,3.462s3.815.118,4.238-1.157-.788-2.825-2.7-3.462S1131.714,1139.655,1131.289,1140.93Z" transform="translate(-1078.135 -1090.104)" fill="#1f0b38"/>
          <path id="Path_64" data-name="Path 64" d="M1112.369,1149.532a3.123,3.123,0,1,0,3.948-1.986A3.125,3.125,0,0,0,1112.369,1149.532Z" transform="translate(-1072.801 -1092.318)" fill="#1f0b38"/>
          <path id="Path_65" data-name="Path 65" d="M1221.2,1403.637a60.813,60.813,0,0,1,2.686,5.962,50.43,50.43,0,0,1,1.379,5.545s3.486,4.732,4.793,6.19c2.91,3.245,6.473,7.082,8.633,7.774.693.222,2.662-.362,2.644-1.876-.073-5.841-5.732-24.881-8.168-28C1230.355,1395.64,1221.2,1403.637,1221.2,1403.637Z" transform="translate(-1103.403 -1162.771)" fill="#1f0b38"/>
          <path id="Path_66" data-name="Path 66" d="M1222.827,1080.956s-2.7,3.029-5.957,3.494-6.114-2.873-6.114-2.873Z" transform="translate(-1100.471 -1073.666)" fill="#f47458"/>
          <path id="Path_67" data-name="Path 67" d="M1084.563,1097.727l-.68.8s-8.69-.75-11.917-4.335Z" transform="translate(-1061.502 -1077.383)" fill="#f47458"/>
          <path id="Path_68" data-name="Path 68" d="M1210.631,1080.827a8.612,8.612,0,0,1-2.669-5.563c-.02-.419,1.139-4.179-.32-4.433-2.425-.422-3.474,10.817-3.474,10.817A16.615,16.615,0,0,1,1210.631,1080.827Z" transform="translate(-1098.621 -1070.82)" fill="#f7a491"/>
        </g>
        <path id="Path_69" data-name="Path 69" d="M1124.217,1175.832l-7.507-3.138a3.619,3.619,0,0,0,2.22,4.479C1122.906,1178.976,1124.217,1175.832,1124.217,1175.832Z" transform="translate(-1074.02 -1099.424)" fill="#fff"/>
      </g>
      <g id="Group_163" data-name="Group 163" transform="translate(715.413 936.197)">
        <g id="Group_162" data-name="Group 162">
          <g id="Group_160" data-name="Group 160" transform="translate(50.844 155.272)">
            <path id="Path_70" data-name="Path 70" d="M824.394,1269.618c-.343.143,4.541,6.439,9.3,10.891,3.838,4.814,7.437,10.514,8.675,16.729,1.882,9.45.316,56.134,1.955,59.457,14.08,13.766,24.277,48.314,27.139,58.853a11.279,11.279,0,0,0,3.255,5.348h0l-.627,11.91-7,6.444s1.556-9.706-1.554-16.9c0,0-35.452-53.689-37.557-57.793-4.02-11.687-18.662-71.566-18.662-71.566l-3.4-13.764S824.364,1269.63,824.394,1269.618Z" transform="translate(-805.925 -1269.618)" fill="#f7a491"/>
            <path id="Path_71" data-name="Path 71" d="M904.1,1483.709s-4.428,6.823-4.806,9.483-2.737,8.691-5.346,9.072c-.592.087-10.737.831-10.663-.437.056-.969,3.728-2.352,5.434-3.53,2.948-2.036,7.522-18.616,7.522-18.616S903.913,1481.583,904.1,1483.709Z" transform="translate(-827.647 -1328.599)" fill="#fe7893"/>
          </g>
          <path id="Path_72" data-name="Path 72" d="M776.826,1294.926s-22.835,48.823-22.98,57.407c-.125,7.359,3.991,48.641,2.842,83.02-.042,1.242-1.614,2.892-3.9,3.94-1.287.59-7.506,3.368-7.506,3.368l-.854,2.224,21.416-1.525.3-5.846s8.523-51.429,7.655-65.974c-.137-2.285-1.247-15.965-1.247-15.965l25.752-49.72-16.2-21.282Z" transform="translate(-737.813 -1118.545)" fill="#f7a491"/>
          <path id="Path_73" data-name="Path 73" d="M767.915,1174.326c11.321,15.751,24.682,5.508,24.077,5.62a48.136,48.136,0,0,1,5.293.585c7.94.948,15.926-3.5,20.117-10.409,12.036.348,21.295-9.211,19.16-19.1,6.135-5.593,5.98-16.1,1.972-23.454.376-10.943-13.6-15.025-23.934-12.811a20.65,20.65,0,0,0-12.943,9.245c-9.413-1.725-18.452,3.856-21.911,13.075C764.48,1138.8,756.363,1158.253,767.915,1174.326Z" transform="translate(-742.875 -1070.703)" fill="#1f0b38"/>
          <path id="Path_74" data-name="Path 74" d="M788.379,1065.355c-.557-1.321,4.532-8.594,4.532-8.594l1.713,4.507c1.739-.8,4.708-6.848,5.793-5.4,1.282,1.715-3.544,9.146-3.926,11.157s4.15,33.25,5.457,39.454,10.148,23.523,10.148,23.523l-8.084,10.258s-12.961-26.4-13.813-34.464c-.09-.848-.191-2.117-.3-3.688Z" transform="translate(-750.142 -1054.268)" fill="#f7a491"/>
          <path id="Path_75" data-name="Path 75" d="M863.263,1201.439l9.6-8.138s7.773,12.959,14,23.526c6.177-2.232,22.137-12.637,22.924-13.115s2.539-12.239,3.891-11.614-1.039,6.206.6,6.623,13.928-7.794,14.181-6.7c.472,2.053-7.337,5.323-6.943,6.238s7.849-4.192,9.037-2.917-7.49,4.156-7.535,4.986,8.506-1.582,8.281.211c-.123.973-7.653,1.956-7.179,2.99s6.341,1.207,6.1,2.315-4.9-.827-7.734.418-5.506.632-9.469,3.972-23.429,22.4-29.5,20.764C878.219,1229.575,863.263,1201.439,863.263,1201.439Z" transform="translate(-771.18 -1092.531)" fill="#f7a491"/>
          <g id="Group_161" data-name="Group 161" transform="translate(11.067 73.402)">
            <path id="Path_76" data-name="Path 76" d="M862.244,1379.93c0,.009-.006.008-.009,0Z" transform="translate(-781.958 -1218.721)" fill="#f47458"/>
            <path id="Path_77" data-name="Path 77" d="M813.968,1179.185c-.614-3.754-6.423-13.148-7.34-15.451,0,0,6.734-8.56,12.2-7.911,0,0,7.347,12.18,11.524,12.589s18.87,1.046,21.445,2.609,13.5,18.342,13.5,18.342-9.82,10.029-13.771,10.008a41.5,41.5,0,0,0-2.937-5.039c-.595,1.921-9.745,31.565-9.732,38.28l-.07.057a19.216,19.216,0,0,1-27.63-3.551h0a152.631,152.631,0,0,0,.337-17.763C810.81,1198,808.108,1190.908,813.968,1179.185Z" transform="translate(-766.345 -1155.787)" fill="#fe7893"/>
            <path id="Path_78" data-name="Path 78" d="M750.619,1322.495l44.818-64.749a44.087,44.087,0,0,0,8.332,2.664c6.427,1.241,12.862,1.041,19.369.829a4.911,4.911,0,0,0,.038.636c.749,5.337,7.829,13.6,9.288,29.8,1.656,18.388.654,50.325.093,52.422C802.761,1340.477,759.074,1331.367,750.619,1322.495Z" transform="translate(-750.619 -1184.415)" fill="#3f1963"/>
          </g>
          <path id="Path_79" data-name="Path 79" d="M845.193,1156.6s-1.577,8.489-1.261,11.837-1.2,14.141-8.009,14.177-1.292-13.721-.652-17,.793-13.439.793-13.439Z" transform="translate(-762.558 -1081.371)" fill="#f7a491"/>
          <path id="Path_80" data-name="Path 80" d="M837.238,1157.272c.106-2.779.141-5.1.141-5.1l9.128,4.427s-.323,1.735-.647,3.947A7.821,7.821,0,0,1,837.238,1157.272Z" transform="translate(-763.873 -1081.371)" fill="#f47458"/>
          <path id="Path_81" data-name="Path 81" d="M848.492,1125.319a11.659,11.659,0,0,1,4.8,6.436c1.285,4.4-.178,15.768-9.264,18.51s-13.022-6.257-11.151-13.291S838.823,1121.029,848.492,1125.319Z" transform="translate(-762.522 -1073.515)" fill="#f7a491"/>
          <path id="Path_82" data-name="Path 82" d="M831.468,1136.756c.178,1.889,1.179,3.334,2.236,3.226s1.769-1.728,1.592-3.618-1.18-3.334-2.238-3.225S831.29,1134.866,831.468,1136.756Z" transform="translate(-762.245 -1076.024)" fill="#f7a491"/>
          <path id="Path_83" data-name="Path 83" d="M857.494,1147.543c-1.067,1.651-1.064,3.6.009,4.351s2.806.021,3.874-1.63,1.064-3.6-.009-4.35S858.561,1145.891,857.494,1147.543Z" transform="translate(-769.336 -1079.53)" fill="#f7a491"/>
          <path id="Path_84" data-name="Path 84" d="M763.332,1507.177H736.278c-1-.089-1.244-.9-.9-1.4.715-1.026,3.871-1.777,7.418-3.411,6.223.648,19.772-3.6,20.754-5.03C764.119,1500.2,763.888,1507.055,763.332,1507.177Z" transform="translate(-735.231 -1178.286)" fill="#fe7893"/>
          <path id="Path_85" data-name="Path 85" d="M801.434,1058.872l1-2.822,1.216-1.369a.481.481,0,0,0-.065-.7,2.213,2.213,0,0,0-2.136.033c-1.388.573-2.162,3.083-3.116,4.036s-4.614,3.528-4.614,3.528l1.087,1.4Z" transform="translate(-751.652 -1053.729)" fill="#f7a491"/>
        </g>
        <path id="Path_86" data-name="Path 86" d="M846.107,1151.048l-7.925-1.845a3.619,3.619,0,0,0,2.935,4.047C845.338,1154.366,846.107,1151.048,846.107,1151.048Z" transform="translate(-764.13 -1080.536)" fill="#fff"/>
      </g>
      <g id="Group_165" data-name="Group 165" transform="translate(1083.726 964.684)">
        <path id="Path_87" data-name="Path 87" d="M1440.385,1473.622s3.186,3.181,3.245,4.335.129,13.516-1.2,14.654-5.2,1.912-3.974,3.224c.927.992,8.151.866,12.94.658,1.4-.061,3.279-11.187,3.851-12.82.831-2.37,2.847-7.707,2.136-9.374-.347-.812-2.031-2.493-4.413-4.07a21.923,21.923,0,0,1-4.878-5.318Z" transform="translate(-1300.928 -1197.667)" fill="#f7a491"/>
        <path id="Path_88" data-name="Path 88" d="M1390.416,1487.4s3.212,9.7,3.215,9.72c.2,1.293,1.007,4.491.993,5.663-.051,4.407-19.83-3.971-15.353-5.871a4.709,4.709,0,0,0,1.836-3.068c.231-2.308-1.614-5.228-1.614-5.228Z" transform="translate(-1284.191 -1203.98)" fill="#f7a491"/>
        <path id="Path_89" data-name="Path 89" d="M1351.325,1275.3s-1.618,14.583-1.62,14.8c-.274,23.617-5.49,69.7-4.651,74.146,2.047,10.855,24.784,66.373,24.784,66.373l12.653-1.364-15.7-66.337,6.367-26.554,9.183-52.529Z" transform="translate(-1274.744 -1144.429)" fill="#8c3d7c"/>
        <path id="Path_90" data-name="Path 90" d="M1397.556,1289.542l2.237,13.865,5.827,57.025,24.058,55.946s-3.569,8.059-8.707,9.137l-38.654-57.6-23.189-79.39.66-10.252Z" transform="translate(-1278.72 -1145.263)" fill="#fe7893"/>
        <path id="Path_91" data-name="Path 91" d="M1452.2,1472.194s-7.667,20.819-10.585,21.795c-.775.258-4.486.9-5.2,2.525a17.077,17.077,0,0,0-.385,2.728l16.081.706s1.819-10.3,2.639-14.34c0,0,4.211-9.84,3.767-10.744S1452.2,1472.194,1452.2,1472.194Z" transform="translate(-1300.313 -1199.712)" fill="#1f0b38"/>
        <path id="Path_92" data-name="Path 92" d="M1390.071,1508.423l-2.338-7.7s-4.8,1.967-7.189,1.6a72.388,72.388,0,0,1-7.036-1.766c-9.574,3.029-15.763,4.494-15.594,7.86h32.157Z" transform="translate(-1278.379 -1207.678)" fill="#1f0b38"/>
        <g id="Group_164" data-name="Group 164" transform="translate(0 18.83)">
          <path id="Path_93" data-name="Path 93" d="M1268.153,1124.464c2.672,4.388,1.848,4.7,2.205,5.252.423.653,9.868,4.622,9.868,4.622s27.753,11.89,29.276,12.476l31.387-1.13,4.511,15.961s-34.152.288-35.931-.02-37.358-20.962-40.551-22.674c0,0-4.576-.564-7.436-1.018s-5.34-2.206-6.123-2.462a24.662,24.662,0,0,1-5.468-3.174c-2.412-1.83.718-1.262.718-1.262s5.081,2.541,5.217,2.086c.1-.351-2.754-1.567-5.444-3.562-.691-.514-1.372-1.023-1.994-1.5-1.631-1.241-1.333-2.655.583-1.644a19.7,19.7,0,0,1,2.512,1.54,16.2,16.2,0,0,0,2.44,1.3,21.194,21.194,0,0,0,2.524,1.321c0-.106.406-.163-.311-.732a49.391,49.391,0,0,1-4.206-2.817c-.675-.629-2.164-1.853-2.164-1.853s-2.427-2.344-2.084-2.667c.749-.707,2.53.491,3.335,1.473a13.235,13.235,0,0,1,2.361,1.678s3.7,1.961,3.992,1.414c.116-.218-1.686-1.78-3.443-3.57-1.857-1.893-3.1-3.35-2.8-3.79.472-.7,2.075.7,2.075.7s1.413,1.235,1.913,1.607c.587.437,2.445,1.6,2.445,1.6s6.657,3.734,6.891,3.194a3.9,3.9,0,0,0-.024-2.542c-.331-.382-1.3-.741-1.632-1.123s-.963-1.272-.528-1.743,3.258.805,3.258.805A7.934,7.934,0,0,1,1268.153,1124.464Z" transform="translate(-1247.331 -1119.519)" fill="#f8a492"/>
          <path id="Path_94" data-name="Path 94" d="M1349,1154.6s-.2,6.584.013,9.073c.175,2.069,2.508,10.885,2.508,10.885s14.824-1.924,21.916-3.288c8.6-1.654,19.162-6.733,18.729-7.711-1.215-2.746-3.387-6.1-7.037-7.783C1372.5,1149.944,1349,1154.6,1349,1154.6Z" transform="translate(-1275.854 -1128.875)" fill="#1f0b38"/>
          <path id="Path_95" data-name="Path 95" d="M1272.553,1135.2c-1.67-1.426-2.8-3.38-1.914-5.4C1268.707,1131.166,1270.14,1134.639,1272.553,1135.2Z" transform="translate(-1253.623 -1122.405)" fill="#fe875e"/>
        </g>
        <path id="Path_96" data-name="Path 96" d="M1373.854,1153.2c6.941.16,19.088,3.044,19.088,3.044s7.806,1.23,10.04,2.542c3.288,1.932,20.012,2.29-6.748,100.593l-47.067-12.215c.819-16.285,10.277-42.889,10.925-47.489C1361.54,1189.394,1367.283,1153.049,1373.854,1153.2Z" transform="translate(-1275.924 -1110.146)" fill="#3f1963"/>
        <path id="Path_97" data-name="Path 97" d="M1402.334,1136.073l2.763,15.36s-8.49,7.76-13.621,6.355c-4.305-1.179-1.563-7.224-1.563-7.224s2.019-8.317,1.189-12.613S1402.334,1136.073,1402.334,1136.073Z" transform="translate(-1287.123 -1105.147)" fill="#f7a491"/>
        <path id="Path_98" data-name="Path 98" d="M1400.74,1141.081a28.208,28.208,0,0,1-8.9,3.013,21.849,21.849,0,0,0,.044-6.141c-.383-1.983,1.981-2.534,4.637-2.555,3.482.2,6.6.676,6.6.676l.531,2.952A12.061,12.061,0,0,1,1400.74,1141.081Z" transform="translate(-1287.906 -1105.147)" fill="#f47458"/>
        <path id="Path_99" data-name="Path 99" d="M1412.1,1107.961c.36-.01-2.917,17.361-8.717,20.526s-14.633,1.912-16.423-2.678c-1.982-5.076,4.13-22.892,12.346-25.405S1412.1,1107.961,1412.1,1107.961Z" transform="translate(-1286.429 -1095.208)" fill="#f7a491"/>
        <path id="Path_100" data-name="Path 100" d="M1411.1,1094.052c5.178,1.922,10.88,7.4,12.364,13.877,1.823,7.957-4.346,15.4-10.235,17.459s-6.7,6.162-6.7,6.162l-.791-4.372s1.2-3.977,3.13-6.011-1.09-4.8-1.42-7.134c-.254-1.8.882-5.335.522-8.281,0,0-3.467-5.229-6.764-6.44C1395.587,1097.249,1403.686,1091.3,1411.1,1094.052Z" transform="translate(-1290.009 -1093.338)" fill="#1f0b38"/>
        <path id="Path_101" data-name="Path 101" d="M1410.278,1127.025c-1.594,1.316-2.246,3.159-1.455,4.115s2.726.665,4.32-.652,2.245-3.159,1.454-4.115S1411.872,1125.708,1410.278,1127.025Z" transform="translate(-1292.58 -1102.455)" fill="#f7a491"/>
        <path id="Path_102" data-name="Path 102" d="M1389.117,1125.434l7.14,1.606a3.238,3.238,0,0,1-3.954,2.1C1388.449,1128.395,1389.117,1125.434,1389.117,1125.434Z" transform="translate(-1287.129 -1102.35)" fill="#fff"/>
      </g>
      <g id="Group_168" data-name="Group 168" transform="translate(664.649 635.134)">
        <path id="Path_103" data-name="Path 103" d="M770.371,672.1a19.439,19.439,0,0,1,5.5,3.578q2.638,3.738,5.561,7.235c.231-1.18.494-2.36.813-3.536a45.916,45.916,0,0,1,19.712-27.223c8.554-5.342,18.1-6.971,26.886-4.587s16.2,8.616,20.88,17.548a47.483,47.483,0,0,1-16.39,60.628c1.562,1.047,3.113,2.09,4.673,3.134.919,4.442,4.835,8.45,10.27,9.925,7.229,1.962,14.407-1.3,16.031-7.285,1.277-4.707-1.271-9.687-5.93-12.557a57.675,57.675,0,0,0,7.63-16.854c7.822-28.828-7.505-58.078-34.236-65.331C806.219,629.84,779.511,645.524,770.371,672.1Z" transform="translate(-694.333 -635.134)" fill="#8c3d7c"/>
        <path id="Path_104" data-name="Path 104" d="M681.609,1004.691a19.425,19.425,0,0,0,6.552-.308c2.777-1.262,5.6-2.4,8.455-3.432-.4,1.135-.767,2.286-1.086,3.463a45.915,45.915,0,0,0,3.249,33.453c4.681,8.933,12.1,15.165,20.88,17.548s18.332.754,26.886-4.587a47.483,47.483,0,0,0,16.5-60.6c1.878-.115,3.744-.23,5.617-.342,3.039-3.368,8.443-4.847,13.878-3.372,7.23,1.962,11.774,8.4,10.15,14.389-1.277,4.707-5.993,7.716-11.464,7.838a57.643,57.643,0,0,1-1.935,18.4c-7.822,28.829-35.833,46.319-62.564,39.066C691.178,1059.275,676.061,1032.241,681.609,1004.691Z" transform="translate(-669.09 -733.635)" fill="#8c3d7c"/>
        <path id="Path_105" data-name="Path 105" d="M790.459,1055.62c-1.353-.851-5.451,6.159-4.857,6.633.388.309,4.1.967,5.068-.42S791.165,1056.093,790.459,1055.62Z" transform="translate(-698.593 -753.177)" fill="#f7a491"/>
        <path id="Path_106" data-name="Path 106" d="M739.259,674.011l13.363,3.626A113.319,113.319,0,0,1,832.3,816.666c-7.917,27.714-10.22,47.578-29.078,70.814A113.34,113.34,0,0,1,685.3,925.744l-13.363-3.626Z" transform="translate(-666.695 -646.05)" fill="#fe7893"/>
        <path id="Path_107" data-name="Path 107" d="M810,943.411l.06-.073-102.9-70.125-11.1,40.92,82.5,56.213A113.447,113.447,0,0,0,810,943.411Z" transform="translate(-673.466 -701.982)" fill="#fea3b5"/>
        <path id="Path_108" data-name="Path 108" d="M829.687,909.118l-109.94-74.365-5.578,20.555,105.462,71.329A102.744,102.744,0,0,0,829.687,909.118Z" transform="translate(-678.553 -691.183)" fill="#fea3b5"/>
        <path id="Path_109" data-name="Path 109" d="M771.794,990.926l-78.467-54.6-2.651,9.773,71,49.4Q766.85,993.458,771.794,990.926Z" transform="translate(-671.957 -719.703)" fill="#fea3b5"/>
        <path id="Path_110" data-name="Path 110" d="M726.7,681.233l-61.275,225.82c-2.236,8.242.527,16.2,6.178,18.246l69.651-256.687C735.345,667.518,728.936,672.991,726.7,681.233Z" transform="translate(-664.649 -644.495)" fill="#fe7893"/>
        <path id="Path_111" data-name="Path 111" d="M869.1,916.9l69.058,5.021,15.16-55.871-61.3-33.628Z" transform="translate(-722.054 -690.529)" fill="#fe7893"/>
        <path id="Path_112" data-name="Path 112" d="M892.028,832.422l13.832,7.588-21.17,78.02L869.105,916.9Z" transform="translate(-722.056 -690.528)" fill="#8c3d7c"/>
        <path id="Path_113" data-name="Path 113" d="M1071.784,887.009l-22.923,84.479-30.838-15.167-31.289-15.4,15.163-55.881,35.2.987Z" transform="translate(-755.083 -705.302)" fill="#fe7893"/>
        <path id="Path_114" data-name="Path 114" d="M1084,887.395l-22.923,84.479-30.838-15.167,19.074-70.294Z" transform="translate(-767.298 -705.687)" fill="#8c3d7c"/>
        <rect id="Rectangle_564" data-name="Rectangle 564" width="90.697" height="16.111" rx="8.056" transform="translate(211.807 247.224) rotate(-74.819)" fill="#fea3b5"/>
        <g id="Group_166" data-name="Group 166" transform="translate(266.279 144.127)">
          <path id="Path_115" data-name="Path 115" d="M1082.552,875.5l-27.076,99.783-17.922-4.863a3.622,3.622,0,0,1-2.547-4.444l25.179-92.792a3.621,3.621,0,0,1,4.444-2.547Z" transform="translate(-1034.88 -845.349)" fill="#fe7893"/>
          <path id="Path_116" data-name="Path 116" d="M1109.513,836.175l6.516,1.768-44.972,165.736-6.515-1.768c-7.509-2.038-12.359-8.274-10.827-13.921l39.42-145.277C1094.667,837.067,1102,834.138,1109.513,836.175Z" transform="translate(-1040.089 -835.527)" fill="#fe7893"/>
          <path id="Path_117" data-name="Path 117" d="M1063.955,1007.48l18.7,10.7-1.877,6.917-18.7-10.7Z" transform="translate(-1042.517 -883.808)" fill="#fea3b5"/>
          <path id="Path_118" data-name="Path 118" d="M1060.219,1021.249l18.7,10.7-1.879,6.925-18.693-10.711Z" transform="translate(-1041.468 -887.674)" fill="#fea3b5"/>
          <path id="Path_119" data-name="Path 119" d="M1067.276,995.238l18.7,10.7-1.879,6.925-18.693-10.711Z" transform="translate(-1043.449 -880.371)" fill="#fea3b5"/>
        </g>
        <g id="Group_167" data-name="Group 167" transform="translate(422.729 124.828)">
          <path id="Path_120" data-name="Path 120" d="M1337.494,809.09l6.515,1.769-75.359,277.723-6.515-1.768c-7.509-2.037-11.519-11.37-8.951-20.832l66.056-243.44C1321.808,813.078,1329.985,807.053,1337.494,809.09Z" transform="translate(-1252.408 -808.694)" fill="#fe7893"/>
          <path id="Path_121" data-name="Path 121" d="M1270.461,1099.344l17.735,14.245-3.145,11.59-17.734-14.246Z" transform="translate(-1256.594 -890.303)" fill="#fea3b5"/>
          <path id="Path_122" data-name="Path 122" d="M1264.2,1122.417l17.734,14.245-3.149,11.6-17.73-14.26Z" transform="translate(-1254.836 -896.781)" fill="#fea3b5"/>
          <path id="Path_123" data-name="Path 123" d="M1276.027,1078.831l17.734,14.245-3.149,11.6-17.73-14.26Z" transform="translate(-1258.157 -884.543)" fill="#fea3b5"/>
        </g>
        <path id="Path_124" data-name="Path 124" d="M879.446,788.112l4.917,1.334A15.959,15.959,0,0,1,895.6,809.026L865.408,920.279a15.962,15.962,0,0,1-19.592,11.229l-4.917-1.334Z" transform="translate(-714.136 -678.087)" fill="#fe7893"/>
        <path id="Path_125" data-name="Path 125" d="M1262.592,844.459l-56.709,208.994-134.555-39.247,55.257-203.643Z" transform="translate(-778.835 -684.391)" fill="#3f1963"/>
        <path id="Path_126" data-name="Path 126" d="M1254.242,913.041,1224.5,1022.635,1089.621,984.6,1118.6,877.812Z" transform="translate(-783.972 -703.273)" fill="#562391"/>
      </g>
      <path id="Path_127" data-name="Path 127" d="M1079.623,1097.7s-6.032-7-7.179-10.179c-.144-.4-.145-4.328-1.615-4.152-2.443.293-.511,9.065-.511,9.065S1076.572,1098.23,1079.623,1097.7Z" transform="translate(-113.7 -125.853)" fill="#f7a491"/>
      <path id="Path_128" data-name="Path 128" d="M1277.744,1182.565c2.584-.278,5.353-1.8,8.467-1.8a18.1,18.1,0,0,1,3.911.606c10.69,3.708,38.417,13.467,39.93,13.476,1.792.011,35-5.545,35-5.545l-7.451-14.147-30.356,5.91c-1.594-.311-30.905-7.073-30.905-7.073s-5.982-1.212-9.028-2.067a20.933,20.933,0,0,1-3.7-1.76,23.813,23.813,0,0,0-4.8-2.041c-.838-.119-2.573-.308-3.618-.408s-2.268-.261-2.828-.248a5.354,5.354,0,0,1-1.558-.476.9.9,0,0,0-1.171,1.2,3.9,3.9,0,0,0,1.95,1.439c1.764.8,4.843.977,4.71,1.24s-5.162,1.707-5.727,1.909-6.4,1.911-7.425,2.618-.756,1.459-.052,1.586c.606.11,8.843-1.656,8.843-1.656s1.051-.223.77.28-7.756,2.12-8.826,2.569-1.575,1.252-.616,1.777c1.165.638,9.038-1.58,9.038-1.58s.992-.261.946.18-6.429,1.711-6.949,2.109a.853.853,0,0,0,.347,1.564c1.146.35,8.158-1.691,8.158-1.691s.576,0,.416.286-5.524,1.761-5.968,2.373a.592.592,0,0,0,.083.856C1270.14,1184.994,1275.159,1182.843,1277.744,1182.565Z" transform="translate(-167.854 -149.315)" fill="#f8a492"/>
      <path id="Path_129" data-name="Path 129" d="M1382.678,1194.572s-2.073-4.909-3.058-8.354c-.659-2.307-3.246-12.617-3.246-12.617s15.819-8.131,22.351-10.068c23.97-7.109,19.52,11.919,17.75,15.5C1412.517,1187.035,1382.678,1194.572,1382.678,1194.572Z" transform="translate(-199.837 -147.92)" fill="#1f0b38"/>
    </g>
  </g>
</svg>
