<svg xmlns="http://www.w3.org/2000/svg" width="882.21" height="668.812" viewBox="0 0 882.21 668.812">
  <g id="h-img01" transform="translate(0 -67.592)">
    <g id="Background_Complete" data-name="Background Complete" transform="translate(0 244.222)">
      <rect id="Rectangle_569" data-name="Rectangle 569" width="882.21" height="0.441" transform="translate(0 378.825)" fill="#ebebeb"/>
      <rect id="Rectangle_570" data-name="Rectangle 570" width="40.9" height="0.441" transform="translate(264.734 390.082)" fill="#ebebeb"/>
      <rect id="Rectangle_571" data-name="Rectangle 571" width="99.99" height="0.441" transform="translate(709.473 399.538)" fill="#ebebeb"/>
      <rect id="Rectangle_572" data-name="Rectangle 572" width="99.99" height="0.441" transform="translate(75.376 399.538)" fill="#ebebeb"/>
      <rect id="Rectangle_573" data-name="Rectangle 573" width="38.113" height="0.441" transform="translate(757 433.365)" fill="#ebebeb"/>
      <g id="Group_224" data-name="Group 224" transform="translate(707.274)">
        <path id="Path_373" data-name="Path 373" d="M519.579,389.3c-3.689-10.576-32.792,3.813-44.516,21.33-7.857,11.668-12.653,24.13-14.881,40.867.261-19.13.575-39.625.863-58.972,2.389-4.824,7.827-15.961,11.749-24.772,13.062-29.432,44.121-40.377,54.847-58.96,14.061-24.349,13.978-60.858,2.01-74.03-10.4-11.451-44.845,65.968-48.726,74.617-13.336,29.76-17.215,51.84-19.716,73.225.272-18.188.545-34.872.778-47.823.723-42.016,1.639-55.532,2.048-59.685,1.449-2.034,3.142-4.4,4.1-5.669,8.337-10.728,26.837-23.5,36.074-39.107,13.5-22.777,11.314-50.035,1.846-60.121-9.893-10.617-27.4,14.47-36.675,39.325s-5.329,48.643-7.924,69.289c-.547,4.1-1.108,19.43-1.641,40.758-2.814-22.955-8.43-38.327-18.826-52.659-12.8-17.627-23.844-39.078-34.394-36.3s-4.863,31.167,3.485,51.1c7.419,17.764,44.066,35.458,49.462,49.723-.626,28.914-1.2,65.587-1.611,99.651-2.885-17.614-.9-19.13-12.736-46.062-7.037-16.042-35.894-35.812-39.324-24.787-3.39,10.809,1.791,31.837,12.681,46.457,8.785,11.765,28.284,11.751,32.792,19.047,1.052,1.71,4.522,8.2,6.518,11.984-.478,41.633-.683,78.39-.452,90.919l1.888.124c-.083-3.225.148-24.4.517-52.442,4.729-14.908,36.606-23.612,46.459-39.121C516.586,420.931,523.993,401.992,519.579,389.3Z" transform="translate(-400.853 -167.698)" fill="#e6e6e6"/>
        <path id="Path_374" data-name="Path 374" d="M482.49,394.654H421.332a7.01,7.01,0,0,1-6.832-5.63l-4.346-21.413h83.623l-4.344,21.413A7.013,7.013,0,0,1,482.49,394.654Z" transform="translate(-393.744 -14.881)" fill="#e6e6e6"/>
        <path id="Path_375" data-name="Path 375" d="M498.816,382.721H411.7a4.1,4.1,0,0,1-4.1-3.635l-1.789-15.823a4.1,4.1,0,0,1,3.608-4.538,4.546,4.546,0,0,1,.491-.026h90.7a4.1,4.1,0,0,1,4.127,4.074,4.588,4.588,0,0,1-.026.491l-1.8,15.8A4.1,4.1,0,0,1,498.816,382.721Z" transform="translate(-397.088 -21.694)" fill="#f0f0f0"/>
      </g>
      <g id="Group_225" data-name="Group 225" transform="translate(155.112 175.737)">
        <rect id="Rectangle_574" data-name="Rectangle 574" width="38.195" height="192.697" transform="translate(169.908 10.135)" fill="#e6e6e6"/>
        <rect id="Rectangle_575" data-name="Rectangle 575" width="164.819" height="192.696" transform="translate(5.089 10.151)" fill="#f0f0f0"/>
        <rect id="Rectangle_576" data-name="Rectangle 576" width="134.789" height="44.417" transform="translate(20.104 84.275)" fill="#e6e6e6"/>
        <rect id="Rectangle_577" data-name="Rectangle 577" width="134.789" height="44.417" transform="translate(20.104 138.605)" fill="#e6e6e6"/>
        <path id="Path_376" data-name="Path 376" d="M130.535,321.668H160.8a3.733,3.733,0,0,0,3.718-3.719h0a3.733,3.733,0,0,0-3.718-3.734H130.535a3.734,3.734,0,0,0-3.719,3.734h0A3.736,3.736,0,0,0,130.535,321.668Z" transform="translate(-58.171 -231.435)" fill="#f0f0f0"/>
        <rect id="Rectangle_578" data-name="Rectangle 578" width="134.789" height="44.417" transform="translate(20.104 29.961)" fill="#e6e6e6"/>
        <path id="Path_377" data-name="Path 377" d="M130.535,290.881H160.8a3.731,3.731,0,0,0,3.718-3.732h0a3.729,3.729,0,0,0-3.718-3.718H130.535a3.732,3.732,0,0,0-3.719,3.718h0A3.733,3.733,0,0,0,130.535,290.881Z" transform="translate(-58.171 -254.966)" fill="#f0f0f0"/>
        <path id="Path_378" data-name="Path 378" d="M130.535,352.456H160.8a3.73,3.73,0,0,0,3.718-3.732h0a3.731,3.731,0,0,0-3.718-3.718H130.535a3.733,3.733,0,0,0-3.719,3.718h0A3.732,3.732,0,0,0,130.535,352.456Z" transform="translate(-58.171 -207.897)" fill="#f0f0f0"/>
        <rect id="Rectangle_579" data-name="Rectangle 579" width="169.908" height="10.135" fill="#e6e6e6"/>
        <rect id="Rectangle_580" data-name="Rectangle 580" width="43.536" height="10.137" transform="translate(169.908 0.014)" fill="#e0e0e0"/>
      </g>
    </g>
    <g id="Shadow" transform="translate(142.625 687.618)">
      <path id="Path_379" data-name="Path 379" d="M698.983,443.388c0,13.473-138.376,24.395-309.073,24.395S80.834,456.861,80.834,443.388,219.212,419,389.909,419,698.983,429.917,698.983,443.388Z" transform="translate(-80.834 -418.997)" fill="#f5f5f5"/>
    </g>
    <g id="Mechanisms" transform="translate(195.353 67.592)">
      <g id="Group_231" data-name="Group 231">
        <g id="Group_226" data-name="Group 226" transform="translate(231.585)">
          <path id="Path_380" data-name="Path 380" d="M516.638,175.645a134.054,134.054,0,0,0-10.061-24.33h0l6.269-20.513L472.366,90.321l-20.536,6.29h0a127.319,127.319,0,0,0-24.307-10.084h0L417.464,67.592H360.148L350.066,86.528a128.476,128.476,0,0,0-24.3,10.084h0l-20.515-6.29-40.525,40.523,6.269,20.515h0a130.92,130.92,0,0,0-10.061,24.328l-18.959,10.061v57.314l18.936,10.082h0a130.208,130.208,0,0,0,10.061,24.3h0L264.7,297.942l40.525,40.525,20.515-6.269a128.375,128.375,0,0,0,24.328,10.038L360.148,361.2h57.315l10.059-18.936h0a130.3,130.3,0,0,0,24.307-10.082l20.536,6.269,40.525-40.527-6.269-20.513h0A133.287,133.287,0,0,0,516.638,253.1h0l18.936-10.082V185.7ZM388.8,318.26A103.909,103.909,0,1,1,492.7,214.349,103.911,103.911,0,0,1,388.8,318.26Z" transform="translate(-241.971 -67.592)" fill="#407bff"/>
          <path id="Path_381" data-name="Path 381" d="M363.888,100.137a89.356,89.356,0,1,0,89.378,89.357A89.356,89.356,0,0,0,363.888,100.137Zm0,166.812a77.455,77.455,0,1,1,77.432-77.477v.023A77.541,77.541,0,0,1,363.888,266.949Z" transform="translate(-217.064 -42.714)" fill="#407bff"/>
          <path id="Path_382" data-name="Path 382" d="M516.638,175.645a134.054,134.054,0,0,0-10.061-24.33h0l6.269-20.513L472.366,90.321l-20.536,6.29h0a127.319,127.319,0,0,0-24.307-10.084h0L417.464,67.592H360.148L350.066,86.528a128.476,128.476,0,0,0-24.3,10.084h0l-20.515-6.29-40.525,40.523,6.269,20.515h0a130.92,130.92,0,0,0-10.061,24.328l-18.959,10.061v57.314l18.936,10.082h0a130.208,130.208,0,0,0,10.061,24.3h0L264.7,297.942l40.525,40.525,20.515-6.269a128.375,128.375,0,0,0,24.328,10.038L360.148,361.2h57.315l10.059-18.936h0a130.3,130.3,0,0,0,24.307-10.082l20.536,6.269,40.525-40.527-6.269-20.513h0A133.287,133.287,0,0,0,516.638,253.1h0l18.936-10.082V185.7ZM388.8,318.26A103.909,103.909,0,1,1,492.7,214.349,103.911,103.911,0,0,1,388.8,318.26Z" transform="translate(-241.971 -67.592)" fill="#fff" opacity="0.4"/>
          <path id="Path_383" data-name="Path 383" d="M363.888,100.137a89.356,89.356,0,1,0,89.378,89.357A89.356,89.356,0,0,0,363.888,100.137Zm0,166.812a77.455,77.455,0,1,1,77.432-77.477v.023A77.541,77.541,0,0,1,363.888,266.949Z" transform="translate(-217.064 -42.714)" fill="#fff" opacity="0.4"/>
        </g>
        <g id="Group_228" data-name="Group 228" transform="translate(0 164.201)">
          <path id="Path_384" data-name="Path 384" d="M256.457,217.936a70.323,70.323,0,0,0-5.351-12.9l3.324-10.883-21.487-21.5-10.885,3.324a70.325,70.325,0,0,0-12.9-5.352l-5.351-9.971H173.4l-5.334,9.971a69.736,69.736,0,0,0-12.9,5.352l-10.885-3.324-21.5,21.5,3.322,10.883a71.594,71.594,0,0,0-5.334,12.9l-10.054,5.351V253.7l10.054,5.336a70.961,70.961,0,0,0,5.334,12.894l-3.322,10.885,21.5,21.5,10.885-3.324a70.853,70.853,0,0,0,12.9,5.334L173.4,316.3h30.41l5.351-9.971a71.589,71.589,0,0,0,12.9-5.334l10.885,3.324,21.5-21.5-3.324-10.885a69.722,69.722,0,0,0,5.352-12.894l10.054-5.336v-30.41Zm-67.851,63.747a43.206,43.206,0,1,1,43.207-43.207,43.207,43.207,0,0,1-43.207,43.207Z" transform="translate(-110.718 -160.654)" fill="#263238"/>
          <g id="Group_227" data-name="Group 227">
            <path id="Path_385" data-name="Path 385" d="M256.457,217.936a70.323,70.323,0,0,0-5.351-12.9l3.324-10.883-21.487-21.5-10.885,3.324a70.325,70.325,0,0,0-12.9-5.352l-5.351-9.971H173.4l-5.334,9.971a69.736,69.736,0,0,0-12.9,5.352l-10.885-3.324-21.5,21.5,3.322,10.883a71.594,71.594,0,0,0-5.334,12.9l-10.054,5.351V253.7l10.054,5.336a70.961,70.961,0,0,0,5.334,12.894l-3.322,10.885,21.5,21.5,10.885-3.324a70.853,70.853,0,0,0,12.9,5.334L173.4,316.3h30.41l5.351-9.971a71.589,71.589,0,0,0,12.9-5.334l10.885,3.324,21.5-21.5-3.324-10.885a69.722,69.722,0,0,0,5.352-12.894l10.054-5.336v-30.41Zm-67.851,63.747a43.206,43.206,0,1,1,43.207-43.207,43.207,43.207,0,0,1-43.207,43.207Z" transform="translate(-110.718 -160.654)" fill="#407bff"/>
            <path id="Path_386" data-name="Path 386" d="M161.068,196.651a14.324,14.324,0,1,0,14.324,14.325h0A14.324,14.324,0,0,0,161.068,196.651Z" transform="translate(-83.18 -133.137)" fill="#263238"/>
            <path id="Path_387" data-name="Path 387" d="M256.457,217.936a70.323,70.323,0,0,0-5.351-12.9l3.324-10.883-21.487-21.5-10.885,3.324a70.325,70.325,0,0,0-12.9-5.352l-5.351-9.971H173.4l-5.334,9.971a69.736,69.736,0,0,0-12.9,5.352l-10.885-3.324-21.5,21.5,3.322,10.883a71.594,71.594,0,0,0-5.334,12.9l-10.054,5.351V253.7l10.054,5.336a70.961,70.961,0,0,0,5.334,12.894l-3.322,10.885,21.5,21.5,10.885-3.324a70.853,70.853,0,0,0,12.9,5.334L173.4,316.3h30.41l5.351-9.971a71.589,71.589,0,0,0,12.9-5.334l10.885,3.324,21.5-21.5-3.324-10.885a69.722,69.722,0,0,0,5.352-12.894l10.054-5.336v-30.41Zm-67.851,63.747a43.206,43.206,0,1,1,43.207-43.207,43.207,43.207,0,0,1-43.207,43.207Z" transform="translate(-110.718 -160.654)" fill="#fff" opacity="0.4"/>
            <path id="Path_388" data-name="Path 388" d="M161.068,196.651a14.324,14.324,0,1,0,14.324,14.325h0A14.324,14.324,0,0,0,161.068,196.651Z" transform="translate(-83.18 -133.137)" fill="#fff" opacity="0.2"/>
          </g>
        </g>
        <g id="Group_229" data-name="Group 229" transform="translate(149.228 134.496)">
          <path id="Path_389" data-name="Path 389" d="M219.541,203.227l-11.633-4.8-.432-4.37a27.352,27.352,0,0,1-3.024-3.008l-4.355-.432-4.8-11.633,2.791-3.324a26.328,26.328,0,0,1,0-4.286l-2.791-3.324,4.8-11.633,4.355-.415a28.8,28.8,0,0,1,3.024-3.026l.432-4.353,11.633-4.8,3.322,2.791a26.353,26.353,0,0,1,4.288,0l3.324-2.791,11.633,4.8.415,4.353A28.8,28.8,0,0,1,245.546,156l4.355.415,4.8,11.633-2.791,3.324a26.331,26.331,0,0,1,0,4.286l2.791,3.324-4.8,11.633-4.355.432a26.04,26.04,0,0,1-3.024,3.024l-.415,4.355-11.633,4.8-3.324-2.791a26.141,26.141,0,0,1-4.27,0Zm8.441-5.367,3.024,2.493,8.824-3.656.367-3.889.415-.332a25.379,25.379,0,0,0,3.407-3.324l.316-.416,3.9-.365,3.656-8.824-2.493-3.024v-.515a23.155,23.155,0,0,0,0-4.819v-.515l2.493-3.024-3.656-8.824-3.889-.367-.332-.415a25.49,25.49,0,0,0-3.407-3.324l-.415-.332-.367-3.889-8.824-3.656-3.024,2.493h-.515a23.4,23.4,0,0,0-4.819,0h-.515l-3.024-2.493-8.824,3.656-.367,3.889-.4.332a24.485,24.485,0,0,0-3.423,3.324l-.332.415-3.889.367-3.689,8.757,2.493,3.024v.515a23.154,23.154,0,0,0,0,4.819v.515l-2.493,3.026,3.656,8.824,3.889.365.332.4a23.645,23.645,0,0,0,3.407,3.407l.415.332.367,3.9,8.824,3.658,3.024-2.493h.515a23.4,23.4,0,0,0,4.819,0Z" transform="translate(-195.294 -143.819)" fill="#263238"/>
          <path id="Path_390" data-name="Path 390" d="M223.187,178.985a13.511,13.511,0,1,1,7.308-17.653l0,0a13.5,13.5,0,0,1-7.287,17.637Z" transform="translate(-188.255 -136.809)" fill="#263238"/>
        </g>
        <g id="Group_230" data-name="Group 230" transform="translate(86.197 77.576)">
          <path id="Path_391" data-name="Path 391" d="M160.4,164.384a.83.83,0,0,1-.831-.831V159.4a.831.831,0,0,1,1.662,0v4.155A.831.831,0,0,1,160.4,164.384Z" transform="translate(-159.571 -75.625)" fill="#407bff"/>
          <path id="Path_392" data-name="Path 392" d="M160.4,187.838a.831.831,0,0,1-.831-.833v-8.325a.831.831,0,1,1,1.662,0v8.325A.832.832,0,0,1,160.4,187.838Zm0-16.654a.829.829,0,0,1-.831-.829v-8.326a.831.831,0,0,1,1.662,0v8.326A.83.83,0,0,1,160.4,171.184Zm0-16.649a.83.83,0,0,1-.831-.831v-8.326a.831.831,0,0,1,1.662,0V153.7A.831.831,0,0,1,160.4,154.535Zm0-16.711a.783.783,0,0,1-.831-.773v-.116a25.279,25.279,0,0,1,1.4-8.33.83.83,0,0,1,1.569.545,23.676,23.676,0,0,0-1.306,7.785A.882.882,0,0,1,160.4,137.824Zm5.359-15.368a.823.823,0,0,1-.519-.182.832.832,0,0,1-.131-1.168,25.407,25.407,0,0,1,6.392-5.7.831.831,0,1,1,.88,1.41,23.754,23.754,0,0,0-5.974,5.325A.831.831,0,0,1,165.761,122.456ZM179.61,113.8a.832.832,0,0,1-.18-1.644,25.589,25.589,0,0,1,5.521-.6h2.941a.83.83,0,0,1,0,1.66H184.95a23.828,23.828,0,0,0-5.161.563A.794.794,0,0,1,179.61,113.8Zm141.494-.584h-8.325a.83.83,0,1,1,0-1.66H321.1a.83.83,0,1,1,0,1.66Zm-16.651,0h-8.326a.83.83,0,0,1,0-1.66h8.326a.83.83,0,1,1,0,1.66Zm-16.651,0h-8.326a.83.83,0,1,1,0-1.66H287.8a.83.83,0,0,1,0,1.66Zm-16.653,0h-8.326a.83.83,0,0,1,0-1.66h8.326a.83.83,0,1,1,0,1.66Zm-16.651,0h-8.326a.83.83,0,1,1,0-1.66H254.5a.83.83,0,1,1,0,1.66Zm-16.653,0H229.52a.83.83,0,1,1,0-1.66h8.326a.83.83,0,1,1,0,1.66Zm-16.651,0h-8.326a.83.83,0,1,1,0-1.66H221.2a.83.83,0,0,1,0,1.66Zm-16.653,0h-8.326a.83.83,0,0,1,0-1.66h8.326a.83.83,0,1,1,0,1.66Z" transform="translate(-159.571 -111.559)" fill="#407bff"/>
          <path id="Path_393" data-name="Path 393" d="M260.369,113.219h-4.155a.83.83,0,1,1,0-1.66h4.155a.83.83,0,1,1,0,1.66Z" transform="translate(-86.33 -111.559)" fill="#407bff"/>
        </g>
      </g>
    </g>
    <g id="Character" transform="translate(224.616 221.446)">
      <g id="Group_252" data-name="Group 252">
        <rect id="Rectangle_581" data-name="Rectangle 581" width="8.704" height="271.843" transform="translate(65.956 488.696) rotate(180)" fill="#263238"/>
        <g id="Group_251" data-name="Group 251">
          <g id="Group_234" data-name="Group 234" transform="translate(265.788 305.756)">
            <path id="Rectangle_582" data-name="Rectangle 582" d="M3.708,0H150.2a0,0,0,0,1,0,0V19.915a0,0,0,0,1,0,0H3.708A3.708,3.708,0,0,1,0,16.207V3.708A3.708,3.708,0,0,1,3.708,0Z" transform="translate(156.403 33.04) rotate(180)" fill="#407bff"/>
            <g id="Group_232" data-name="Group 232" transform="translate(0 19.913)">
              <line id="Line_7" data-name="Line 7" x1="10.409" y1="164.541" transform="translate(133.915)" fill="none" stroke="#407bff" stroke-linecap="round" stroke-linejoin="round" stroke-width="2.826"/>
              <line id="Line_8" data-name="Line 8" x1="10.409" y1="164.539" transform="translate(94.054 8.159)" fill="none" stroke="#407bff" stroke-linecap="round" stroke-linejoin="round" stroke-width="2.826"/>
              <line id="Line_9" data-name="Line 9" y1="164.541" x2="10.411" fill="none" stroke="#407bff" stroke-linecap="round" stroke-linejoin="round" stroke-width="2.826"/>
              <line id="Line_10" data-name="Line 10" y1="164.539" x2="10.411" transform="translate(39.861 8.159)" fill="none" stroke="#407bff" stroke-linecap="round" stroke-linejoin="round" stroke-width="2.826"/>
            </g>
            <g id="Group_233" data-name="Group 233" transform="translate(18.955 0)">
              <path id="Rectangle_583" data-name="Rectangle 583" d="M3.707,0H150.195a0,0,0,0,1,0,0V19.913a0,0,0,0,1,0,0H3.708A3.708,3.708,0,0,1,0,16.205V3.707A3.707,3.707,0,0,1,3.707,0Z" transform="translate(150.195 19.913) rotate(180)" fill="#407bff"/>
              <path id="Rectangle_584" data-name="Rectangle 584" d="M3.707,0H150.195a0,0,0,0,1,0,0V19.913a0,0,0,0,1,0,0H3.708A3.708,3.708,0,0,1,0,16.205V3.707A3.707,3.707,0,0,1,3.707,0Z" transform="translate(150.195 19.913) rotate(180)" opacity="0.2"/>
            </g>
          </g>
          <rect id="Rectangle_585" data-name="Rectangle 585" width="8.703" height="271.843" transform="translate(292.411 495.19) rotate(180)" fill="#263238"/>
          <g id="Group_243" data-name="Group 243" transform="translate(154.223 244.035)">
            <g id="Group_239" data-name="Group 239" transform="translate(32.411)">
              <g id="Group_235" data-name="Group 235" transform="translate(10.776)">
                <path id="Path_394" data-name="Path 394" d="M355.134,293.1s-99.427,3.735-115.947,43.661c0,0,2.294,118.858,15.6,157.865l28.453-3.211-4.55-115.592L381.542,293.1Z" transform="translate(-239.187 -293.099)" fill="#263238"/>
                <path id="Path_395" data-name="Path 395" d="M355.134,293.1s-99.427,3.735-115.947,43.661c0,0,2.294,118.858,15.6,157.865l28.453-3.211-4.55-115.592L381.542,293.1Z" transform="translate(-239.187 -293.099)" opacity="0.2"/>
              </g>
              <g id="Group_238" data-name="Group 238" transform="translate(0 197.335)">
                <g id="Group_236" data-name="Group 236" transform="translate(31.941 9.608)">
                  <path id="Path_396" data-name="Path 396" d="M269.359,431.493H251.6l-.241-11.832-.181-9.275,17.351,1.051.345,8.224Z" transform="translate(-251.183 -410.386)" fill="#b55b52"/>
                  <path id="Path_397" data-name="Path 397" d="M268.878,419.661H251.364l-.181-9.275,17.351,1.051Z" transform="translate(-251.183 -410.386)" opacity="0.2"/>
                </g>
                <path id="Path_398" data-name="Path 398" d="M285.472,418.315l-38.031,1.149L240.5,405.347l43.928-.407Z" transform="translate(-227.409 -404.94)" fill="#407bff"/>
                <g id="Group_237" data-name="Group 237" transform="translate(17.779 24.282)">
                  <path id="Path_399" data-name="Path 399" d="M250.651,427.813s.905-10.421-2.714-8.972C244.285,420.3,248.353,425.623,250.651,427.813Z" transform="translate(-240.618 -418.703)" fill="none" stroke="#407bff" stroke-miterlimit="10" stroke-width="0.942"/>
                  <path id="Path_400" data-name="Path 400" d="M253.189,425.368s-7.825-5.459-9.808-2.677S253.189,425.368,253.189,425.368Z" transform="translate(-243.156 -416.258)" fill="none" stroke="#407bff" stroke-miterlimit="10" stroke-width="0.942"/>
                </g>
                <path id="Path_401" data-name="Path 401" d="M267.084,420.989l14.041.15a4,4,0,0,1,3.914,3.689l.99,12.485A3.845,3.845,0,0,1,282.1,441.5c-7.642-.221-23.364-.635-28.935-.473-7.469.217-18.064.332-19.582-2.5a3.688,3.688,0,0,1,.9-4.693s20.333-1.888,29.7-11.559A4.012,4.012,0,0,1,267.084,420.989Z" transform="translate(-233.08 -392.673)" fill="#263238"/>
              </g>
            </g>
            <path id="Path_402" data-name="Path 402" d="M444.347,293.1s1.876,23.174,1.172,41.081c-.812,20.64-45.254,38.833-109.959,28.278,0,0-5.05,34.877-22.946,67s-45.891,79.851-45.891,79.851l-27.536-17.9s36.254-100.5,43.138-128.5,9.637-41.3,29.369-50.021,62.872-19.8,62.872-19.8Z" transform="translate(-196 -293.099)" fill="#263238"/>
            <g id="Group_242" data-name="Group 242" transform="translate(0 185.332)">
              <g id="Group_240" data-name="Group 240" transform="translate(35.987 18.101)">
                <path id="Path_403" data-name="Path 403" d="M259.342,415.914l-3.263,5.021L248.892,432l-13.786-8.043,7.232-11.215,2.8-4.346Z" transform="translate(-235.106 -408.396)" fill="#b55b52"/>
                <path id="Path_404" data-name="Path 404" d="M256.209,415.914l-3.263,5.021L239.2,412.742,242,408.4Z" transform="translate(-231.973 -408.396)" opacity="0.2"/>
              </g>
              <path id="Path_405" data-name="Path 405" d="M277.036,419.748l-36.079-21.611-5.851,14.417,34.262,19.776Z" transform="translate(-199.119 -398.138)" fill="#407bff"/>
              <g id="Group_241" data-name="Group 241" transform="translate(17.882 24.991)">
                <path id="Path_406" data-name="Path 406" d="M230.442,421.5s2.629-9.036-.328-9.2S230.442,421.5,230.442,421.5Z" transform="translate(-221.761 -412.302)" fill="none" stroke="#407bff" stroke-miterlimit="10" stroke-width="0.942"/>
                <path id="Path_407" data-name="Path 407" d="M232.824,420.77s-4.063-9.81-7.349-7.617S232.824,420.77,232.824,420.77Z" transform="translate(-224.845 -411.896)" fill="none" stroke="#407bff" stroke-miterlimit="10" stroke-width="0.942"/>
              </g>
              <path id="Path_408" data-name="Path 408" d="M252.484,418.97l12.035,7.1a3.888,3.888,0,0,1,1.509,5.071L260.56,442.2a3.88,3.88,0,0,1-5.512,1.591c-6.477-3.982-19.829-12.144-24.714-14.775-6.551-3.529-15.747-8.693-15.622-11.841a3.659,3.659,0,0,1,3.151-3.529s18.491,8.5,31.463,4.972A4.069,4.069,0,0,1,252.484,418.97Z" transform="translate(-214.71 -386.285)" fill="#263238"/>
            </g>
          </g>
          <g id="Group_249" data-name="Group 249" transform="translate(200.879)">
            <path id="Path_409" data-name="Path 409" d="M331.144,237.8s-3.7,40.469-2.209,50.884c0,0-38.683,5.653-58.321,2.975l-13.094-3.273-16.367,3.993,4.464,12.969h13.092s9.523,2.677,13.688,0c0,0,32.732,6.546,52.075,4.464s25.33-9.438,26.186-24.1c.82-14.091,10.122-45.554,2.684-52.7Z" transform="translate(-241.153 -94.997)" fill="#b55b52"/>
            <path id="Path_410" data-name="Path 410" d="M428.46,259.378s-14.835-37.681-29.27-46.2-81.259,7.774-81.259,7.774-28.679,9.231-30.323,54.028l26.346,11.169,4.166,69.919h89.213l-.48-90.575Z" transform="translate(-205.642 -112.037)" fill="#407bff"/>
            <path id="Path_411" data-name="Path 411" d="M310.521,189.844s-8.836-1.1-11.229-7.726,6.805-3.277,6.034-15.236,12.967-14.832,22.962-9.568,25.78-.478,31.761,6.7,3.349,13.874,3.349,13.874,17.143,19.382-4.586,32.654S310.521,189.844,310.521,189.844Z" transform="translate(-197.014 -154.79)" fill="#263238"/>
            <path id="Path_412" data-name="Path 412" d="M359.609,242.493c-9.533,14.525-18.1,16.028-29.6,16.012-12.884-.046-8.57-9.171-8.57-9.171,5.4-2.691,9.337-5.591,9.955-12.238a27.991,27.991,0,0,0,.088-3.878,34.272,34.272,0,0,0-1.533-8.78c-18.265,1.653-24.7-7.262-26.987-24.07a51.786,51.786,0,0,1,5.4-30.085c10.585,12.448,30.505,2.693,30.505,2.693-5.593,16.19,8.1,21.993,8.1,21.993,5.383-3.321,9.531-.42,9.127,6.015a9.026,9.026,0,0,1-6.017,8.1C349.041,237.711,359.609,242.493,359.609,242.493Z" transform="translate(-194.228 -142.948)" fill="#b55b52"/>
            <g id="Group_244" data-name="Group 244" transform="translate(118.603 59.217)">
              <path id="Path_413" data-name="Path 413" d="M308.935,193.13A.564.564,0,0,1,308.9,192c6.377-.344,8.87-3.405,8.9-3.435a.563.563,0,0,1,.887.693c-.111.141-2.791,3.494-9.722,3.868Z" transform="translate(-308.372 -188.352)" fill="#263238"/>
            </g>
            <path id="Path_414" data-name="Path 414" d="M311.143,191.758l-1.036-10.708-4.623,9.734A5.778,5.778,0,0,0,311.143,191.758Z" transform="translate(-191.977 -134.717)" fill="#a02724"/>
            <path id="Path_415" data-name="Path 415" d="M312.726,182.1c0,1.343.626,2.433,1.4,2.433s1.4-1.09,1.4-2.433-.626-2.435-1.4-2.435S312.726,180.76,312.726,182.1Z" transform="translate(-186.441 -135.772)" fill="#263238"/>
            <path id="Path_416" data-name="Path 416" d="M303.9,182.1c0,1.343.628,2.433,1.4,2.433s1.4-1.09,1.4-2.433-.626-2.435-1.4-2.435S303.9,180.76,303.9,182.1Z" transform="translate(-193.19 -135.772)" fill="#263238"/>
            <g id="Group_245" data-name="Group 245" transform="translate(126.263 36.612)">
              <path id="Path_417" data-name="Path 417" d="M321.984,179.806a.752.752,0,0,1-.614-.316c-.1-.132-2.394-3.241-7.769-2.251a.752.752,0,0,1-.272-1.479c6.354-1.17,9.156,2.7,9.269,2.864a.751.751,0,0,1-.182,1.046A.742.742,0,0,1,321.984,179.806Z" transform="translate(-312.714 -175.54)" fill="#263238"/>
            </g>
            <g id="Group_246" data-name="Group 246" transform="translate(108.982 36.054)">
              <path id="Path_418" data-name="Path 418" d="M303.672,179.134a.752.752,0,0,1-.67-1.094c1.683-3.3,5.713-2.8,5.881-2.774a.751.751,0,0,1-.2,1.489c-.127-.014-3.148-.376-4.342,1.967A.75.75,0,0,1,303.672,179.134Z" transform="translate(-302.919 -175.224)" fill="#263238"/>
            </g>
            <g id="Group_247" data-name="Group 247" transform="translate(100.193 37.979)">
              <path id="Path_419" data-name="Path 419" d="M306.293,193.022a8.354,8.354,0,1,1,8.353-8.353A8.363,8.363,0,0,1,306.293,193.022Zm0-15.578a7.225,7.225,0,1,0,7.227,7.225A7.235,7.235,0,0,0,306.293,177.444Z" transform="translate(-297.938 -176.315)" fill="#fff"/>
            </g>
            <g id="Group_248" data-name="Group 248" transform="translate(120.122 37.979)">
              <path id="Path_420" data-name="Path 420" d="M317.586,193.022a8.354,8.354,0,1,1,8.354-8.353A8.362,8.362,0,0,1,317.586,193.022Zm0-15.578a7.225,7.225,0,1,0,7.225,7.225A7.233,7.233,0,0,0,317.586,177.444Z" transform="translate(-309.233 -176.315)" fill="#fff"/>
            </g>
            <line id="Line_11" data-name="Line 11" x2="3.222" transform="translate(116.9 46.333)" fill="none" stroke="#fff" stroke-miterlimit="10" stroke-width="0.942"/>
            <line id="Line_12" data-name="Line 12" x2="15.64" y2="3.757" transform="translate(136.285 47.861)" fill="none" stroke="#fff" stroke-linecap="round" stroke-linejoin="round" stroke-width="0.942"/>
            <path id="Path_421" data-name="Path 421" d="M324.117,200.037a40.064,40.064,0,0,1-4.512,10.435,34.272,34.272,0,0,0-1.533-8.78Z" transform="translate(-182.355 -120.203)" opacity="0.2"/>
            <path id="Path_422" data-name="Path 422" d="M304.5,258.311l0-11.169-4.513,9.256Z" transform="translate(-196.183 -84.195)" opacity="0.2"/>
            <path id="Path_423" data-name="Path 423" d="M346.185,253.734l-3.443-20.107L341.77,255.5Z" transform="translate(-164.239 -94.526)" opacity="0.2"/>
            <path id="Path_424" data-name="Path 424" d="M405.661,290.147c-.224,14.689-6.841,22.024-26.189,24.1s-52.066-4.466-52.066-4.466c-4.164,2.691-13.7,0-13.7,0h-13.1l-4.45-12.96,16.356-4,13.1,3.277c19.634,2.675,58.319-2.978,58.319-2.978-1.113-7.8-2.364-33.249-2.89-45.141l23.075-6.827C406.39,256.67,405.857,277.471,405.661,290.147Z" transform="translate(-199.101 -88.772)" fill="#b55b52"/>
          </g>
          <g id="Group_250" data-name="Group 250" transform="translate(65.956 115.56)">
            <path id="Path_425" data-name="Path 425" d="M164.829,229.338l15.629,79.591a7.594,7.594,0,0,0,7.449,6.13h132.21a7.593,7.593,0,0,0,7.474-8.924L313.4,226.543a7.592,7.592,0,0,0-7.472-6.258H172.278A7.591,7.591,0,0,0,164.829,229.338Z" transform="translate(-164.684 -220.285)" fill="#407bff"/>
            <path id="Path_426" data-name="Path 426" d="M245.874,220.285l16.515,94.774h0a3.959,3.959,0,0,0,3.9-4.655l-15.481-86.855a3.957,3.957,0,0,0-3.9-3.264Z" transform="translate(-102.621 -220.285)" opacity="0.2"/>
            <path id="Path_427" data-name="Path 427" d="M174.5,281.6H377.829a7.608,7.608,0,0,0-7.6-7.6h-188.1A7.616,7.616,0,0,0,174.5,281.6Z" transform="translate(-157.177 -179.225)" fill="#407bff"/>
            <path id="Path_428" data-name="Path 428" d="M251.673,281.6h67.166a7.608,7.608,0,0,0-7.6-7.6H259.3A7.616,7.616,0,0,0,251.673,281.6Z" transform="translate(-98.188 -179.225)" opacity="0.2"/>
            <path id="Path_429" data-name="Path 429" d="M201.843,257.421c1.424,9.907,8.27,17.12,15.294,16.111s11.566-9.856,10.144-19.762-8.27-17.12-15.294-16.111S200.422,247.516,201.843,257.421Z" transform="translate(-136.478 -207.075)" fill="#fff" opacity="0.4"/>
            <path id="Path_430" data-name="Path 430" d="M174.5,281.6H377.829a7.608,7.608,0,0,0-7.6-7.6h-188.1A7.616,7.616,0,0,0,174.5,281.6Z" transform="translate(-157.177 -179.225)" opacity="0.2"/>
          </g>
          <path id="Path_431" data-name="Path 431" d="M127.3,289.338H478.419a12.569,12.569,0,0,0-12.568-12.568H139.871A12.568,12.568,0,0,0,127.3,289.338Z" transform="translate(-127.303 -61.546)" fill="#263238"/>
        </g>
      </g>
    </g>
  </g>
</svg>
