<svg xmlns="http://www.w3.org/2000/svg" width="140" height="140" viewBox="0 0 140 140">
  <g id="ot02" transform="translate(-911.029 -3156.365)">
    <g id="Group_1548" data-name="Group 1548">
      <circle id="Ellipse_2" data-name="Ellipse 2" cx="70" cy="70" r="70" transform="translate(911.029 3156.365)" fill="#2cabe1"/>
      <g id="Icon_ionic-ios-videocam" data-name="Icon ionic-ios-videocam" transform="translate(948.287 3199.94)">
        <path id="Path_434" data-name="Path 434" d="M38.251,10.8a2.326,2.326,0,0,0-1.266.368L25.21,18.6a1.165,1.165,0,0,0-.545.98V29.926a1.165,1.165,0,0,0,.545.98l11.775,7.433a2.447,2.447,0,0,0,1.266.368h2.831a1.159,1.159,0,0,0,1.171-1.157V11.957A1.168,1.168,0,0,0,41.083,10.8Z" transform="translate(20.982 1.685)" fill="#fff"/>
        <path id="Path_435" data-name="Path 435" d="M35.125,43.849H9.261a7.033,7.033,0,0,1-7.011-7V16a7.021,7.021,0,0,1,7-7H35.111a7.021,7.021,0,0,1,7,7V36.838A7,7,0,0,1,35.125,43.849Z" transform="translate(0 0)" fill="#fff"/>
      </g>
    </g>
  </g>
</svg>
