<svg id="Layer_1" data-name="Layer 1" xmlns="http://www.w3.org/2000/svg" xmlns:xlink="http://www.w3.org/1999/xlink" viewBox="0 0 1906 700"><defs><style>.cls-1,.cls-9{fill:none;}.cls-2{clip-path:url(#clip-path);}.cls-3{fill:#2cabde;}.cls-4{fill:#0872c6;}.cls-5{opacity:0.34;}.cls-6{fill:url(#linear-gradient);}.cls-7{fill:url(#linear-gradient-2);}.cls-8{fill:url(#linear-gradient-3);}.cls-9{stroke:#fff;stroke-miterlimit:10;stroke-width:10px;}</style><clipPath id="clip-path"><rect class="cls-1" y="-5.83" width="1906" height="701.55"/></clipPath><linearGradient id="linear-gradient" x1="2866.01" y1="1210.46" x2="2867.01" y2="1210.46" gradientTransform="matrix(2016.25, 0, 0, -391.33, -5778601.15, 473931.58)" gradientUnits="userSpaceOnUse"><stop offset="0" stop-color="#ccc"/><stop offset="0.54" stop-color="#fff"/><stop offset="1" stop-color="#bfbfbf"/></linearGradient><linearGradient id="linear-gradient-2" x1="2866.01" y1="1210.45" x2="2867.01" y2="1210.45" gradientTransform="matrix(2016.25, 0, 0, -391.33, -5778607.32, 473894.67)" xlink:href="#linear-gradient"/><linearGradient id="linear-gradient-3" x1="2866.01" y1="1210.45" x2="2867.01" y2="1210.45" gradientTransform="matrix(2016.25, 0, 0, -391.33, -5778607.32, 473880.87)" xlink:href="#linear-gradient"/></defs><g class="cls-2"><g id="top-des"><g id="top-des-2"><g id="Group_272" data-name="Group 272"><path id="Path_437" data-name="Path 437" class="cls-3" d="M-11.1,280.06s695.2-335.57,1123.8,5.25c164.4,130.77,458.3,379,804.4,374.22V36.71H-7.1Z"/><path id="Path_438" data-name="Path 438" class="cls-4" d="M-13.51,145.56s485.9-68.13,687.9-48.8c159,15.23,230.19,3.44,565.6,182.61,0,0,398.19,217.16,670.8,228.71V-5.83H-13.51Z"/></g><g id="Group_277" data-name="Group 277" class="cls-5"><path id="Path_439" data-name="Path 439" class="cls-6" d="M1744.67,420.6c-223,0-472.3-129.24-641.7-217.12-29.6-15.31-57.6-29.86-82-41.84-302.8-149-565.4-95.58-732.3-24.54C107.67,214.13-3,327.88-4.13,329l-3.1-2.57c1.1-1.14,112.4-115.46,294.1-192.87,106.8-45.46,216.6-69.52,326.5-71.42,137.4-2.38,275.2,29.86,409.5,96.05,24.5,12.08,52.4,26.54,82.1,41.94,241.3,125.06,645,334.48,901.3,132.58l2.7,2.94C1931.37,396.83,1840.37,420.6,1744.67,420.6Z"/><path id="Path_440" data-name="Path 440" class="cls-7" d="M1744.67,392.74c-223,0-472.3-129.25-641.7-217.12-29.6-15.32-57.6-29.87-82-41.85-302.8-149-565.4-95.58-732.3-24.54C107.67,186.27-3,300-4.13,301.15l-3.1-2.57c1.1-1.14,112.4-115.45,294.1-192.87,106.8-45.45,216.6-69.52,326.5-71.42,137.4-2.38,275.2,29.86,409.5,96.06,24.5,12.07,52.4,26.53,82.1,41.94,241.3,125.06,645,334.38,901.3,132.48l2.7,2.94C1931.37,368.87,1840.37,392.74,1744.67,392.74Z"/><path id="Path_441" data-name="Path 441" class="cls-8" d="M1744.67,370.29c-223,0-472.3-129.24-641.7-217.12-29.6-15.31-57.6-29.86-82-41.84-302.8-149-565.4-95.58-732.3-24.54-181,77-291.7,190.78-292.8,191.92l-3.1-2.57c1.1-1.14,112.4-115.46,294.1-192.87,106.8-45.46,216.6-69.52,326.5-71.42,137.4-2.38,275.2,29.86,409.5,96.05,24.5,12.08,52.5,26.54,82.1,41.94,241.3,125.06,645,334.48,901.3,132.58l2.7,2.94C1931.37,346.52,1840.37,370.29,1744.67,370.29Z"/></g><ellipse id="Ellipse_80" data-name="Ellipse 80" class="cls-9" cx="1759.05" cy="383.05" rx="41" ry="37.57"/></g></g></g></svg>